<svg xmlns="http://www.w3.org/2000/svg" xmlns:xlink="http://www.w3.org/1999/xlink">

<symbol viewBox="0 0 36 36" id="cow">
    <g clip-path="url(#clip0_4683_134)">
    <path d="M6.93937 0.216297C6.64615 0.469917 5.80724 2.21992 5.50588 3.17524C5.14751 4.35881 5.02534 5.24649 5.07421 6.47234C5.13937 8.22233 5.57919 9.54963 6.54842 10.9361C6.80091 11.2996 7.00453 11.6124 7.00453 11.6378C7.00453 11.6547 6.84977 11.6716 6.6543 11.6716C5.81538 11.6716 4.24344 11.9506 3.03801 12.3141C1.12398 12.889 0 13.895 0 15.0194C0 15.4168 0.358371 16.0931 0.741176 16.4397C1.48235 17.1076 3.10317 17.7417 4.84615 18.046C5.44887 18.1559 7.24072 18.3419 7.63982 18.3504C7.71312 18.3504 7.73756 18.7392 7.73756 20.0158C7.73756 21.1148 7.77828 21.9687 7.85973 22.4929C8.15294 24.3697 9.06516 26.3564 10.2706 27.7598L10.686 28.2417L10.409 28.6897C10.0018 29.3238 9.84706 29.8057 9.79819 30.5243C9.67602 32.2489 10.7511 33.7791 12.8281 34.8528C16.7864 36.9071 22.9357 36.104 25.2407 33.2296C26.3647 31.8262 26.495 30.2199 25.6072 28.7658L25.3303 28.3177L25.8272 27.7175C26.7557 26.6016 27.3584 25.4856 27.8145 24.0738C28.1973 22.8733 28.3439 21.7151 28.3439 19.8805C28.3439 19.0436 28.3683 18.3504 28.4091 18.3504C28.7837 18.3419 30.5837 18.1475 31.1538 18.046C32.905 17.7417 34.4932 17.1161 35.2588 16.4397C35.6416 16.0931 36 15.4168 36 15.0194C36 13.7682 34.7294 12.7537 32.3674 12.145C31.5937 11.9421 30.1357 11.697 29.4272 11.6547L29.0932 11.6293L29.4597 11.1221C29.9158 10.5049 30.486 9.30446 30.7059 8.51823C31.3249 6.24407 30.9421 3.59794 29.6145 1.07016C29.0606 0.0218506 28.6778 -0.223316 28.2299 0.190933C28.0588 0.351562 27.9855 0.571369 27.8226 1.36605C27.3176 3.89383 26.381 5.89746 25.0127 7.37692L24.41 8.03634H17.9674H11.5249L10.9873 7.45301C9.65158 5.982 8.68235 3.90229 8.17738 1.36605C8.01448 0.571369 7.94118 0.351562 7.77014 0.190933C7.50136 -0.0542336 7.24072 -0.0457802 6.93937 0.216297ZM7.9819 5.22958C8.41358 6.17644 8.95113 7.06412 9.58643 7.88417L10.0914 8.53514L9.56199 8.93248C9.06516 9.31291 8.60091 9.85398 8.24253 10.4711L8.08778 10.7501L7.69683 10.2175C6.36109 8.37451 6.02715 6.11726 6.73575 3.77547C7.07783 2.64263 7.06968 2.65108 7.37919 3.63176C7.52579 4.10519 7.80272 4.82378 7.9819 5.22958ZM29.1828 3.44577C29.5167 4.45181 29.6471 5.25494 29.6471 6.2948C29.6471 7.83345 29.2398 9.13538 28.3846 10.302L28.0018 10.8262L27.7167 10.3443C27.3828 9.75253 26.8127 9.13538 26.2914 8.78031C26.0715 8.63659 25.9005 8.49287 25.9005 8.47596C25.9005 8.4506 26.0552 8.25615 26.2507 8.0448C27.1548 7.03876 28.124 5.22958 28.6045 3.67403C28.7511 3.19214 28.8977 2.7948 28.9222 2.7948C28.9466 2.7948 29.0688 3.09069 29.1828 3.44577ZM25.0208 9.62572C25.9249 10.0062 26.7882 11.0967 26.9267 12.0182C27 12.5255 27.171 12.8467 27.391 12.8975C27.4887 12.9144 28.1647 12.9735 28.8896 13.0243C31.4634 13.1933 33.4914 13.7429 34.3548 14.4953C34.7538 14.8504 34.7131 15.1462 34.2326 15.5098C33.2715 16.2368 31.1946 16.7863 29.0769 16.8793C27.676 16.9385 27.3828 16.9808 27.1955 17.1752C27.057 17.319 27.0407 17.4711 27.0407 19.0013C27.0407 21.0726 26.9348 22.2646 26.6742 23.2284C26.3077 24.5388 25.5828 25.9337 24.7357 26.9228L24.3855 27.3286L23.6606 26.8974C22.781 26.3733 21.9584 26.0351 20.9729 25.8069C17.886 25.0714 14.4733 25.5194 12.1765 26.9651L11.6471 27.3032L11.3131 26.9059C10.857 26.3733 10.1403 25.232 9.8552 24.5895C9.22806 23.1354 9.04072 21.9518 9.04072 19.3479C9.04072 16.8202 9.17104 17.0061 7.29774 16.9047C4.90317 16.7779 3.07873 16.3467 1.93032 15.6197C1.08326 15.0786 1.22172 14.5967 2.40271 14.0303C3.53484 13.4808 5.0905 13.1511 7.24887 13.0158C8.9267 12.9059 8.96742 12.8805 9.12217 12.069C9.35023 10.8431 10.2543 9.82862 11.3946 9.50736C11.6796 9.42282 13.276 9.40591 18.1629 9.41436L24.5566 9.43127L25.0208 9.62572ZM20.4434 27.1257C22.4389 27.616 23.9294 28.5291 24.5729 29.6619C24.7276 29.924 24.7928 30.1945 24.8253 30.6088C24.8579 31.1245 24.8335 31.2513 24.638 31.674C23.7339 33.5931 20.4109 34.8612 17.0308 34.5738C12.9665 34.2356 10.295 31.9699 11.3457 29.7465C11.9158 28.546 13.8462 27.3962 15.8824 27.0581C16.2163 27.0074 16.5502 26.9482 16.6154 26.9313C16.6805 26.9144 17.4136 26.9144 18.2443 26.9313C19.3765 26.9566 19.9222 27.0074 20.4434 27.1257Z" fill="#131313"></path>
    <path d="M12.364 13.8613C11.859 14.0304 11.5169 14.2502 11.0608 14.7067C10.6617 15.0871 10.6291 15.5352 10.9631 15.8057C11.2726 16.0593 11.5658 16.0255 11.9404 15.6958C12.4128 15.2816 12.7793 15.1125 13.2355 15.1125C13.6916 15.104 14.0418 15.2647 14.5305 15.6958C14.9051 16.0255 15.1983 16.0593 15.5079 15.8057C15.6707 15.6705 15.7196 15.5606 15.7196 15.3069C15.7196 15.0449 15.6626 14.9265 15.3775 14.6391C14.5712 13.8275 13.3739 13.5147 12.364 13.8613Z" fill="#131313"></path>
    <path d="M21.8606 13.8525C21.3393 14.047 20.6714 14.4866 20.4026 14.8163C20.142 15.1376 20.1339 15.5011 20.4026 15.7716C20.6714 16.0591 20.9972 16.0422 21.3882 15.7209C22.3492 14.9262 23.066 14.9009 23.9538 15.6364C24.1818 15.8308 24.4425 15.983 24.5239 15.983C24.923 15.983 25.2488 15.6279 25.2488 15.2052C25.2488 14.9347 24.5728 14.3091 23.9619 14.0132C23.2859 13.6835 22.4796 13.6243 21.8606 13.8525Z" fill="#131313"></path>
    <path d="M13.5448 29.5016C13.3086 29.7298 13.2272 30.0595 13.3493 30.3216C13.4389 30.533 13.5774 30.6175 14.1394 30.7697C14.3919 30.8373 14.4978 30.9218 14.5874 31.1332C14.7014 31.4122 14.7095 31.4122 15.3367 31.4375L15.9638 31.4629V31.2262C15.9557 30.888 15.7683 30.3977 15.524 30.0595C15.2389 29.6706 14.7421 29.417 14.1801 29.3663C13.7973 29.3325 13.6996 29.3494 13.5448 29.5016Z" fill="#131313"></path>
    <path d="M21.3233 29.4419C20.916 29.5518 20.3296 30.1013 20.1667 30.5325C20.0934 30.7269 20.0201 31.0735 20.012 31.3018C19.9957 31.6653 20.0282 31.7499 20.2237 31.9274C20.7043 32.3501 21.3396 32.0204 21.3396 31.3441C21.3396 31.0143 21.5839 30.7861 22.0156 30.7015C22.4717 30.617 22.6346 30.431 22.6427 29.9999C22.6427 29.4334 22.1377 29.2136 21.3233 29.4419Z" fill="#131313"></path>
    </g>
    <defs>
    <clipPath id="clip0_4683_134">
    <rect width="36" height="36" fill="white"></rect>
    </clipPath>
    </defs>
</symbol>

<symbol viewBox="0 0 48 48" id="cursor">
    <path d="M18.047 14.0117L28.9811 24.2169C30.8522 25.9633 29.8177 29.1 27.2748 29.3907L23.1573 29.8612C22.124 29.9793 21.1533 30.4167 20.3802 31.1124L18.0069 33.2484C16.0763 34.9859 13 33.6159 13 31.0186V16.2049C13 13.5817 16.1293 12.2219 18.047 14.0117Z" stroke="#131313" stroke-width="2"></path>
</symbol>

<symbol viewBox="0 0 60 65" id="logo">
    <path d="M30.9285 34.6984C33.802 27.0114 27.8514 22.8036 23.907 20.0381C23.1528 19.4731 22.3986 18.9453 21.7877 18.4621C20.6959 17.554 19.8916 16.3559 19.4705 15.0103C19.0493 13.6648 19.029 12.2283 19.412 10.8717C19.4513 10.7298 19.4503 10.5799 19.4091 10.4385C19.3679 10.2971 19.2881 10.1695 19.1784 10.0698C19.0686 9.97004 18.9332 9.90195 18.7869 9.87294C18.6405 9.84393 18.4889 9.85511 18.3486 9.90528C17.0202 10.4233 15.7851 11.1488 14.6907 12.0538C13.6392 12.8529 12.7873 13.8788 12.2003 15.0527C11.6133 16.2267 11.3068 17.5175 11.3044 18.8263C10.5606 19.4043 9.90308 20.0825 9.35102 20.841C8.33683 22.2057 7.82834 23.872 7.9105 25.5617C6.70244 26.6555 5.8027 28.0393 5.29908 29.5781C4.79546 31.1169 4.70516 32.7581 5.03702 34.3415C4.55642 34.6278 4.18442 35.0616 3.97814 35.5764C3.77185 36.0912 3.74269 36.6585 3.89514 37.1912C4.04759 37.7239 4.37323 38.1925 4.82203 38.5252C5.27082 38.8578 5.81798 39.036 6.37949 39.0325H6.43228V43.4038C6.43228 43.8474 6.61106 44.2729 6.9293 44.5866C7.24753 44.9003 7.67917 45.0765 8.12922 45.0765H9.44906L11.5985 63.439C11.6432 63.8478 11.8397 64.2258 12.1502 64.5003C12.4607 64.7748 12.8633 64.9264 13.2804 64.9258H22.2251C22.6426 64.9249 23.0452 64.7731 23.3566 64.499C23.668 64.2249 23.8665 63.8478 23.9145 63.439L26.064 45.0765H27.3838C27.8339 45.0765 28.2655 44.9003 28.5837 44.5866C28.902 44.2729 29.0808 43.8474 29.0808 43.4038V39.0325H29.1336C29.8156 39.0325 30.4698 38.7654 30.9521 38.29C31.4344 37.8146 31.7053 37.1698 31.7053 36.4974C31.7088 36.1619 31.6438 35.8291 31.5142 35.5187C31.3847 35.2084 31.1932 34.9269 30.9511 34.6909L30.9285 34.6984ZM11.5684 20.7518C12.6544 24.7737 16.8477 26.3572 20.6715 27.7697C20.7743 27.8321 20.8898 27.8713 21.0097 27.8848C21.1297 27.8982 21.2511 27.8854 21.3655 27.8473C21.4798 27.8092 21.5843 27.7468 21.6714 27.6644C21.7585 27.5821 21.8262 27.4818 21.8696 27.3707C21.9129 27.2597 21.931 27.1406 21.9224 27.0219C21.9138 26.9032 21.8788 26.7879 21.8198 26.684C21.7609 26.5802 21.6795 26.4904 21.5814 26.421C21.4833 26.3517 21.3709 26.3045 21.2522 26.2828C17.1343 24.744 13.2502 23.3092 12.9561 19.198C12.8871 18.0679 13.1023 16.9386 13.5826 15.9101C14.0628 14.8817 14.7932 13.9861 15.7089 13.3027C16.2826 12.8322 16.8985 12.4142 17.5491 12.0538C17.5072 12.5684 17.5072 13.0855 17.5491 13.6001C17.6364 14.7781 17.9631 15.9269 18.5099 16.978C19.0567 18.0291 19.8123 18.961 20.7318 19.7184C21.3578 20.2463 22.1346 20.789 22.9944 21.3688C24.9779 22.7739 27.233 24.3425 28.6659 26.4687C29.4305 27.5591 29.9062 28.8207 30.0498 30.1386C30.1934 31.4565 30.0002 32.7889 29.488 34.0144H29.1713H26.1545C19.2838 34.0144 11.3873 32.141 9.82616 26.8924C9.51646 25.8127 9.51899 24.6691 9.83348 23.5906C10.148 22.5122 10.7619 21.5418 11.6061 20.789L11.5684 20.7518ZM17.7527 46.095L20.2718 48.578L17.7527 51.0611L15.2337 48.5632L17.7527 46.095ZM23.5299 52.6148L21.4483 54.6667L18.9293 52.1836L21.4483 49.708L23.6355 51.8565L23.5299 52.6148ZM17.7527 58.3094L15.2337 55.8264L17.7527 53.3433L20.2718 55.8264L17.7527 58.3094ZM16.5988 52.1985L14.0798 54.6815L11.9831 52.6148L11.8926 51.8714L14.0798 49.7229L16.5988 52.1985ZM12.9184 55.8264L12.413 56.3245L12.2848 55.1945L12.9184 55.8264ZM12.6544 58.3689L14.0798 56.9638L16.8477 59.7145C16.8619 59.77 16.8795 59.8246 16.9005 59.878H12.8278L12.6544 58.3689ZM21.4332 56.9638L22.8587 58.3689L22.6852 59.8557H18.4994L21.4332 56.9638ZM23.0924 56.3245L22.5871 55.8264L23.2282 55.1945L23.0924 56.3245ZM23.8466 49.827L22.5871 48.5632L24.186 46.9871L23.8466 49.827ZM21.4257 47.4332L19.0349 45.084H23.8165L21.4257 47.4332ZM14.0723 47.4332L11.6815 45.084H16.4631L14.0723 47.4332ZM22.2176 63.3126H13.2804C13.2669 63.3111 13.2544 63.3051 13.2448 63.2956C13.2353 63.2862 13.2292 63.2738 13.2276 63.2606L13.0164 61.4764H22.4891L22.2855 63.2606C22.2836 63.275 22.2764 63.2883 22.2653 63.2979C22.2542 63.3075 22.2399 63.3127 22.2251 63.3126H22.2176ZM29.1336 37.4118H26.509C26.3949 37.401 26.2798 37.4139 26.171 37.4495C26.0623 37.4851 25.9623 37.5427 25.8775 37.6187C25.7927 37.6946 25.7249 37.7872 25.6786 37.8905C25.6322 37.9938 25.6082 38.1055 25.6082 38.2185C25.6082 38.3314 25.6322 38.4431 25.6786 38.5464C25.7249 38.6497 25.7927 38.7423 25.8775 38.8182C25.9623 38.8942 26.0623 38.9518 26.171 38.9874C26.2798 39.0231 26.3949 39.0359 26.509 39.0251H27.4441V43.3964C27.4423 43.4108 27.4352 43.4241 27.424 43.4337C27.4129 43.4433 27.3986 43.4485 27.3838 43.4484H8.09905C8.08427 43.4485 8.06996 43.4433 8.05884 43.4337C8.04772 43.4241 8.04057 43.4108 8.03872 43.3964V39.0251H22.9793C23.1828 39.0058 23.3717 38.9125 23.5091 38.7633C23.6466 38.6142 23.7227 38.42 23.7227 38.2185C23.7227 38.017 23.6466 37.8227 23.5091 37.6736C23.3717 37.5244 23.1828 37.4311 22.9793 37.4118H6.38703C6.25767 37.4233 6.1273 37.4081 6.00423 37.3672C5.88116 37.3263 5.76807 37.2605 5.6722 37.1742C5.57632 37.0878 5.49976 36.9827 5.44738 36.8655C5.39499 36.7484 5.36792 36.6218 5.36792 36.4937C5.36792 36.3657 5.39499 36.2391 5.44738 36.1219C5.49976 36.0048 5.57632 35.8996 5.6722 35.8133C5.76807 35.7269 5.88116 35.6612 6.00423 35.6202C6.1273 35.5793 6.25767 35.5641 6.38703 35.5756H8.09905C8.30252 35.5563 8.49141 35.463 8.62886 35.3139C8.76631 35.1647 8.84247 34.9705 8.84247 34.769C8.84247 34.5675 8.76631 34.3732 8.62886 34.2241C8.49141 34.075 8.30252 33.9817 8.09905 33.9624H6.59066C6.37462 32.8312 6.40972 31.6674 6.69354 30.5509C6.97736 29.4344 7.50317 28.3917 8.2348 27.4946C8.76273 29.1153 10.1203 31.3307 13.5142 33.0926C16.7044 34.7355 20.9279 35.5756 26.064 35.5756H29.0808C29.2101 35.5641 29.3405 35.5793 29.4636 35.6202C29.5866 35.6612 29.6997 35.7269 29.7956 35.8133C29.8914 35.8996 29.968 36.0048 30.0204 36.1219C30.0728 36.2391 30.0998 36.3657 30.0998 36.4937C30.0998 36.6218 30.0728 36.7484 30.0204 36.8655C29.968 36.9827 29.8914 37.0878 29.7956 37.1742C29.6997 37.2605 29.5866 37.3263 29.4636 37.3672C29.3405 37.4081 29.2101 37.4233 29.0808 37.4118H29.1336Z" fill="#F8D24E"></path>
    <mask id="path-2-outside-1_105_11154" maskUnits="userSpaceOnUse" x="25.4341" y="50.0076" width="33" height="15" fill="black">
    <rect fill="white" x="25.4341" y="50.0076" width="33" height="15"></rect>
    <path d="M38.2728 55.3789C35.0995 55.3789 33.5128 56.0766 33.5128 57.472C33.5128 58.2229 33.8281 58.8037 34.4585 59.2145C35.0959 59.6183 36.0274 59.8201 37.2528 59.8201C38.4853 59.8201 39.6859 59.721 40.8546 59.5226L40.929 62.8694C39.5832 63.2236 38.1169 63.4007 36.5303 63.4007C34.9437 63.4007 33.612 63.2767 32.5354 63.0288C31.4587 62.788 30.6158 62.5188 30.0067 62.2213C29.3975 61.9238 28.8592 61.5768 28.3917 61.1801C27.3859 60.3301 26.8865 59.1968 26.8936 57.7802C26.8936 56.9018 27.0671 56.1085 27.4142 55.4002C28.0517 54.104 29.1638 53.1548 30.7504 52.5527C32.337 51.9436 34.0866 51.639 35.9991 51.639C37.9115 51.639 39.7248 51.8515 41.439 52.2765L41.1733 55.6871C40.0896 55.4817 39.1228 55.3789 38.2728 55.3789ZM51.9915 56.3564C51.9845 55.6906 51.8286 55.2196 51.524 54.9433C51.2265 54.6671 50.7874 54.529 50.2066 54.529C49.6328 54.529 49.1689 54.7025 48.8147 55.0496C48.4606 55.3896 48.241 55.8181 48.156 56.3352L51.9915 56.3564ZM56.1565 62.1363C55.7173 62.4692 54.9346 62.7597 53.8084 63.0076C52.6821 63.2626 51.5878 63.3901 50.5253 63.3901C49.4699 63.3901 48.5739 63.3405 47.8372 63.2413C47.1006 63.1421 46.371 62.9651 45.6485 62.7101C44.926 62.448 44.3062 62.1186 43.7892 61.722C43.2792 61.3182 42.8648 60.7976 42.5461 60.1601C42.2273 59.5155 42.068 58.747 42.068 57.8545C42.068 56.955 42.2309 56.1298 42.5567 55.3789C42.8825 54.6281 43.304 54.0225 43.821 53.5621C45.2589 52.28 47.3414 51.639 50.0684 51.639C51.3647 51.639 52.5972 51.8869 53.7659 52.3827C54.9346 52.8927 55.7669 53.6577 56.2627 54.6777C56.546 55.2514 56.6877 55.8854 56.6877 56.5796L56.5602 58.3326L47.9435 58.2901C48.1135 58.9347 48.5243 59.4412 49.176 59.8095C49.8347 60.1778 50.7307 60.362 51.864 60.362C52.9974 60.362 54.3042 60.0539 55.7846 59.4376H56.3583L56.1565 62.1363Z"></path>
    </mask>
    <path d="M34.4585 59.2145L33.8644 60.1261L33.8763 60.1337L34.4585 59.2145ZM40.8546 59.5226L41.9423 59.4985L41.9143 58.2393L40.6726 58.45L40.8546 59.5226ZM40.929 62.8694L41.2059 63.9216L42.0358 63.7032L42.0167 62.8453L40.929 62.8694ZM32.5354 63.0288L32.7795 61.9686L32.7729 61.9671L32.5354 63.0288ZM28.3917 61.1801L29.0956 60.3505L29.0939 60.3491L28.3917 61.1801ZM26.8936 57.7802L27.9816 57.7856V57.7802H26.8936ZM27.4142 55.4002L26.4379 54.92L26.4372 54.9215L27.4142 55.4002ZM30.7504 52.5527L31.1364 53.57L31.1404 53.5684L30.7504 52.5527ZM41.439 52.2765L42.5237 52.361L42.5952 51.4423L41.7008 51.2205L41.439 52.2765ZM41.1733 55.6871L40.9707 56.756L42.1638 56.9821L42.258 55.7715L41.1733 55.6871ZM38.2728 54.291C36.64 54.291 35.2675 54.4654 34.2649 54.9063C33.7511 55.1322 33.2837 55.4501 32.9433 55.8991C32.5923 56.3621 32.4249 56.9017 32.4249 57.472H34.6008C34.6008 57.3447 34.6317 57.2738 34.6774 57.2136C34.7337 57.1393 34.8612 57.0211 35.1408 56.8982C35.7248 56.6414 36.7323 56.4669 38.2728 56.4669V54.291ZM32.4249 57.472C32.4249 58.5916 32.9267 59.5149 33.8644 60.126L35.0525 58.303C34.7294 58.0925 34.6008 57.8541 34.6008 57.472H32.4249ZM33.8763 60.1337C34.7653 60.6967 35.9375 60.9081 37.2528 60.9081V58.7321C36.1172 58.7321 35.4266 58.5398 35.0406 58.2954L33.8763 60.1337ZM37.2528 60.9081C38.5439 60.9081 39.8054 60.8042 41.0366 60.5953L40.6726 58.45C39.5663 58.6377 38.4267 58.7321 37.2528 58.7321V60.9081ZM39.7669 59.5468L39.8413 62.8936L42.0167 62.8453L41.9423 59.4985L39.7669 59.5468ZM40.6521 61.8173C39.4082 62.1446 38.0363 62.3127 36.5303 62.3127V64.4887C38.1976 64.4887 39.7581 64.3026 41.2059 63.9216L40.6521 61.8173ZM36.5303 62.3127C34.9935 62.3127 33.7497 62.192 32.7795 61.9686L32.2912 64.0891C33.4743 64.3615 34.8938 64.4887 36.5303 64.4887V62.3127ZM32.7729 61.9671C31.7344 61.7348 30.9844 61.488 30.4841 61.2437L29.5292 63.199C30.2473 63.5496 31.183 63.8412 32.2979 64.0906L32.7729 61.9671ZM30.4841 61.2437C29.9478 60.9818 29.4872 60.6828 29.0956 60.3505L27.6878 62.0097C28.2311 62.4707 28.8472 62.8659 29.5292 63.199L30.4841 61.2437ZM29.0939 60.3491C28.3547 59.7244 27.9759 58.9079 27.9816 57.7856L25.8056 57.7747C25.7971 59.4857 26.4171 60.9359 27.6894 62.0111L29.0939 60.3491ZM27.9816 57.7802C27.9816 57.0488 28.1251 56.422 28.3912 55.8789L26.4372 54.9215C26.0092 55.795 25.8056 56.7549 25.8056 57.7802H27.9816ZM28.3905 55.8803C28.8854 54.874 29.7594 54.0925 31.1364 53.57L30.3644 51.5355C28.5681 52.2172 27.2179 53.334 26.4379 54.92L28.3905 55.8803ZM31.1404 53.5684C32.5879 53.0127 34.2033 52.727 35.9991 52.727V50.551C33.9699 50.551 32.0861 50.8745 30.3604 51.537L31.1404 53.5684ZM35.9991 52.727C37.8305 52.727 39.5554 52.9304 41.1771 53.3325L41.7008 51.2205C39.8942 50.7726 37.9925 50.551 35.9991 50.551V52.727ZM40.3543 52.192L40.0886 55.6026L42.258 55.7715L42.5237 52.361L40.3543 52.192ZM41.376 54.6181C40.244 54.4036 39.2073 54.291 38.2728 54.291V56.4669C39.0382 56.4669 39.9352 56.5597 40.9707 56.756L41.376 54.6181ZM51.9915 56.3564L51.9855 57.4444L53.0912 57.4505L53.0795 56.3449L51.9915 56.3564ZM51.524 54.9433L50.7837 55.7407L50.7931 55.7492L51.524 54.9433ZM48.8147 55.0496L49.5682 55.8345L49.5762 55.8266L48.8147 55.0496ZM48.156 56.3352L47.0824 56.1587L46.8757 57.4161L48.1499 57.4231L48.156 56.3352ZM56.1565 62.1363L56.8137 63.0034L57.2048 62.7069L57.2414 62.2175L56.1565 62.1363ZM53.8084 63.0076L53.5745 61.945L53.5681 61.9464L53.8084 63.0076ZM45.6485 62.7101L45.2775 63.7329L45.2864 63.736L45.6485 62.7101ZM43.7892 61.722L43.1139 62.575L43.1204 62.5801L43.127 62.5852L43.7892 61.722ZM42.5461 60.1601L41.5708 60.6424L41.573 60.6467L42.5461 60.1601ZM43.821 53.5621L44.5446 54.3747L44.5451 54.3742L43.821 53.5621ZM53.7659 52.3827L54.201 51.3855L54.1908 51.3812L53.7659 52.3827ZM56.2627 54.6777L55.2842 55.1534L55.2872 55.1594L56.2627 54.6777ZM56.6877 56.5796L57.7728 56.6585L57.7757 56.6191V56.5796H56.6877ZM56.5602 58.3326L56.5548 59.4206L57.5716 59.4256L57.6453 58.4116L56.5602 58.3326ZM47.9435 58.2901L47.9488 57.2022L46.5295 57.1952L46.8915 58.5676L47.9435 58.2901ZM49.176 59.8095L48.6406 60.7567L48.645 60.7591L49.176 59.8095ZM55.7846 59.4376V58.3496H55.5672L55.3665 58.4332L55.7846 59.4376ZM56.3583 59.4376L57.4433 59.5188L57.5307 58.3496H56.3583V59.4376ZM53.0795 56.3449C53.0711 55.5579 52.8902 54.7136 52.255 54.1374L50.7931 55.7492C50.7803 55.7376 50.8053 55.7515 50.8364 55.8455C50.8694 55.9451 50.9009 56.1115 50.9036 56.368L53.0795 56.3449ZM52.2644 54.1461C51.6934 53.6159 50.9443 53.441 50.2066 53.441V55.6169C50.6305 55.6169 50.7597 55.7183 50.7837 55.7406L52.2644 54.1461ZM50.2066 53.441C49.3963 53.441 48.6428 53.6948 48.0532 54.2725L49.5762 55.8266C49.695 55.7102 49.8693 55.6169 50.2066 55.6169V53.441ZM48.0613 54.2647C47.5257 54.7789 47.2028 55.4262 47.0824 56.1587L49.2295 56.5117C49.2791 56.21 49.3954 56.0003 49.5682 55.8344L48.0613 54.2647ZM48.1499 57.4231L51.9855 57.4444L51.9976 55.2685L48.162 55.2472L48.1499 57.4231ZM55.4992 61.2693C55.2607 61.4501 54.679 61.7019 53.5745 61.945L54.0423 64.0701C55.1902 63.8174 56.1739 63.4884 56.8137 63.0034L55.4992 61.2693ZM53.5681 61.9464C52.514 62.1851 51.5003 62.3021 50.5253 62.3021V64.478C51.6753 64.478 52.8503 64.34 54.0486 64.0687L53.5681 61.9464ZM50.5253 62.3021C49.5001 62.3021 48.6556 62.2537 47.9824 62.1631L47.6921 64.3196C48.4921 64.4273 49.4397 64.478 50.5253 64.478V62.3021ZM47.9824 62.1631C47.3219 62.0741 46.6649 61.9151 46.0106 61.6841L45.2864 63.736C46.0771 64.0151 46.8793 64.2102 47.6921 64.3196L47.9824 62.1631ZM46.0195 61.6873C45.3834 61.4566 44.8659 61.1767 44.4514 60.8587L43.127 62.5852C43.7466 63.0605 44.4686 63.4394 45.2775 63.7328L46.0195 61.6873ZM44.4645 60.8689C44.091 60.5732 43.7736 60.1824 43.5192 59.6736L41.573 60.6467C41.956 61.4128 42.4674 62.0632 43.1139 62.575L44.4645 60.8689ZM43.5213 59.6778C43.2924 59.215 43.1559 58.6192 43.1559 57.8545H40.98C40.98 58.8748 41.1622 59.8161 41.5708 60.6424L43.5213 59.6778ZM43.1559 57.8545C43.1559 57.0891 43.2939 56.4132 43.5548 55.8121L41.5586 54.9458C41.1679 55.8463 40.98 56.8208 40.98 57.8545H43.1559ZM43.5548 55.8121C43.829 55.18 44.165 54.7126 44.5446 54.3747L43.0975 52.7495C42.4429 53.3324 41.936 54.0762 41.5586 54.9458L43.5548 55.8121ZM44.5451 54.3742C45.7144 53.3316 47.4982 52.727 50.0684 52.727V50.551C47.1847 50.551 44.8035 51.2285 43.097 52.75L44.5451 54.3742ZM50.0684 52.727C51.2218 52.727 52.3095 52.9467 53.341 53.3843L54.1908 51.3812C52.8848 50.8271 51.5075 50.551 50.0684 50.551V52.727ZM53.3307 53.3799C54.2935 53.8001 54.9158 54.3955 55.2842 55.1534L57.2412 54.2021C56.618 52.9199 55.5757 51.9854 54.201 51.3856L53.3307 53.3799ZM55.2872 55.1594C55.4904 55.5709 55.5997 56.038 55.5997 56.5796H57.7757C57.7757 55.7327 57.6017 54.932 57.2382 54.196L55.2872 55.1594ZM55.6026 56.5006L55.4751 58.2537L57.6453 58.4116L57.7728 56.6585L55.6026 56.5006ZM56.5656 57.2447L47.9488 57.2022L47.9381 59.3781L56.5548 59.4206L56.5656 57.2447ZM46.8915 58.5676C47.1458 59.5321 47.7679 60.2634 48.6406 60.7567L49.7113 58.8623C49.2807 58.619 49.0811 58.3374 48.9955 58.0127L46.8915 58.5676ZM48.645 60.7591C49.5274 61.2525 50.6309 61.45 51.864 61.45V59.274C50.8306 59.274 50.142 59.1031 49.7069 58.8599L48.645 60.7591ZM51.864 61.45C53.1873 61.45 54.6407 61.0923 56.2027 60.4421L55.3665 58.4332C53.9677 59.0155 52.8074 59.274 51.864 59.274V61.45ZM55.7846 60.5256H56.3583V58.3496H55.7846V60.5256ZM55.2734 59.3565L55.0715 62.0552L57.2414 62.2175L57.4433 59.5188L55.2734 59.3565Z" fill="#F8D24E" mask="url(#path-2-outside-1_105_11154)"></path>
</symbol>

<symbol viewBox="0 0 36 36" id="ice-crema">
    <path d="M18.1219 0.120502C18.2123 0.361507 18.393 1.52887 18.393 1.89038C18.393 2.78661 18.0616 3.62259 17.4516 4.27782C16.947 4.82008 16.4424 5.12134 15.2298 5.61088C13.8817 6.16067 13.3244 6.49205 12.6918 7.11716C12.0516 7.75732 11.675 8.45774 11.5395 9.27866C11.3888 10.1749 11.5395 10.8075 11.9989 11.169L12.2324 11.3498L11.8633 11.5833C11.1177 12.0728 9.76206 13.2251 9.52859 13.5791C9.07671 14.2569 9.1219 14.8895 9.63403 15.1456L9.87504 15.2661L9.60391 15.5222C9.19721 15.9063 9.11437 16.1699 9.17462 16.8628C9.21227 17.3222 9.19721 17.5707 9.09177 17.9473C8.96374 18.4368 8.96374 18.4444 9.12943 18.7908C9.29512 19.1297 9.76206 19.559 10.1838 19.7397C10.3872 19.8301 10.3947 19.8603 10.4399 20.5531C10.4625 20.9523 10.5001 22.2251 10.5303 23.3849C10.5529 24.5448 10.6056 25.6067 10.6508 25.7347C10.6884 25.8703 10.8315 26.051 10.9596 26.1414C11.3964 26.4427 11.6976 26.7665 11.8934 27.1431C12.1119 27.5724 12.3529 28.6268 13.0834 32.272L13.5955 34.8326L13.9119 35.1339C14.5144 35.7289 15.6667 36 17.5646 36C19.47 36 20.6073 35.7364 21.2098 35.1414L21.5336 34.8326L22.0006 32.4603C23.0324 27.2711 23.1227 26.9849 23.9286 26.3448C24.1771 26.1414 24.4181 25.8929 24.4633 25.7799C24.516 25.6519 24.5688 24.6653 24.6064 23.1741C24.6365 21.8485 24.6817 20.5381 24.7119 20.2594L24.757 19.7548L25.2466 19.3858C25.8642 18.9113 26.1052 18.482 26.1052 17.8192C26.0976 17.036 25.5855 16.1774 24.6516 15.4092L24.2073 15.0477L24.4257 14.7389C25.337 13.4812 24.7646 11.7414 23.07 10.5816L22.5579 10.2276L22.7462 10.0318C23.5821 9.13556 23.7177 6.46193 23.0173 4.60167C22.5955 3.49456 21.6315 2.28954 20.4491 1.40084C19.8692 0.964016 18.2725 0 18.1294 0C18.0993 0 18.0993 0.0527191 18.1219 0.120502ZM20.2909 2.74895C20.6901 3.14059 21.1721 3.67531 21.3604 3.94644C22.4826 5.51297 22.7688 7.47866 22.0909 8.92469C21.8198 9.51213 21.0064 10.3858 20.2533 10.9054C19.101 11.7038 16.5102 13.0444 14.7027 13.7824C11.7955 14.9649 10.1085 15.1908 9.91269 14.4151C9.83738 14.1213 10.0558 13.8879 10.9821 13.2703C11.8181 12.6979 15.5688 9.9113 15.6365 9.79833C15.6591 9.7682 15.275 9.94142 14.793 10.1824C13.1587 11.0109 12.383 10.8527 12.4206 9.70042C12.4432 8.86444 13.0457 7.91548 13.8817 7.37322C14.0926 7.23766 14.7478 6.9364 15.3503 6.6954C17.3311 5.89707 17.9336 5.49038 18.6039 4.4887C19.0031 3.89372 19.4399 2.79414 19.47 2.3272C19.4775 2.16151 19.5077 2.03347 19.5303 2.03347C19.5529 2.03347 19.8918 2.35732 20.2909 2.74895ZM22.347 11.3046C22.8968 11.6134 23.4692 12.1406 23.7177 12.5548C24.1545 13.3004 23.9286 14.046 22.9872 14.995C21.9629 16.0343 20.2156 17.0285 18.2951 17.6611C16.5252 18.241 14.8307 18.5121 12.4056 18.595L10.8993 18.6477L11.8784 18.708C13.1437 18.7908 15.5914 18.7155 16.5403 18.5649C19.0633 18.1657 21.2098 17.3674 22.7462 16.2678C23.0926 16.0192 23.4541 15.8159 23.552 15.8159C23.8006 15.8159 24.8851 16.8552 25.1035 17.292C25.224 17.5406 25.2541 17.7213 25.2315 17.9623C25.1185 18.964 23.8985 19.4987 20.9537 19.8527C17.3537 20.282 12.6466 19.8603 10.6357 18.9339C9.68675 18.4971 9.52859 18.2485 9.7696 17.5858C9.84491 17.3749 9.85997 17.1264 9.82985 16.7724C9.79219 16.3054 9.79972 16.2452 9.96541 16.072C10.342 15.6653 10.9746 15.4318 13.2943 14.8444C14.1077 14.6335 15.2148 14.3021 15.742 14.1063C17.0223 13.6393 19.4248 12.4268 20.5395 11.6812C21.5863 10.9883 21.737 10.9582 22.347 11.3046ZM12.3453 20.523C13.9269 20.9824 15.3278 21.118 17.9336 21.0653C19.8918 21.0276 21.0968 20.9071 22.8365 20.5983C23.1905 20.5381 23.4993 20.4854 23.537 20.4854C23.6198 20.4854 23.5972 23.3774 23.5068 24.1381C23.4089 24.9439 23.1905 25.569 22.957 25.7197C22.716 25.8778 21.511 26.0435 19.8993 26.1339C16.593 26.3146 13.1964 26.1339 12.142 25.7121C11.5696 25.4787 11.5093 25.1774 11.5018 22.3833C11.5018 20.523 11.5169 20.2669 11.6148 20.3046C11.675 20.3272 12.0064 20.4251 12.3453 20.523ZM14.1303 26.9247C14.6725 26.9925 15.26 27.0603 15.4407 27.0828L15.7646 27.1205L15.4784 27.4368C15.1093 27.836 14.5445 28.6343 14.3411 29.041C14.1077 29.5079 14.0324 29.5381 13.6859 29.3498L13.3922 29.1841L13.2265 28.1598C13.1361 27.6025 13.0382 27.0678 13.0156 26.9774C12.9478 26.7816 12.8801 26.7816 14.1303 26.9247ZM22.1587 26.8418C22.1587 26.8569 22.1211 27.0527 22.0834 27.2711C22.0382 27.4971 21.8499 28.7247 21.6616 30.005C21.2775 32.6787 21.0215 33.9364 20.788 34.3582C20.4642 34.923 19.6884 35.2544 18.4307 35.3598C17.9411 35.3975 16.465 35.2996 16.3821 35.2243C16.3219 35.1565 17.6173 33.5523 17.8206 33.4469C18.0089 33.3414 18.0616 33.3565 18.7018 33.6879C19.4474 34.0795 19.824 34.1397 19.824 33.8912C19.824 33.6427 19.6282 33.4017 19.1462 33.0703C18.7018 32.754 18.5437 32.5732 18.5437 32.3623C18.5437 32.3021 18.7621 31.9632 19.0257 31.6092C19.2893 31.2552 19.6734 30.6904 19.8692 30.3515L20.2382 29.7414L20.5771 29.7866C21.2625 29.8845 21.4432 29.877 21.4206 29.7264C21.4056 29.651 21.2775 29.4326 21.1344 29.2519C20.9914 29.0636 20.8784 28.8753 20.8784 28.8377C20.8784 28.6946 21.5788 27.3766 21.8047 27.0979C22.0006 26.8569 22.1587 26.7364 22.1587 26.8418ZM17.4516 27.4444C17.8282 27.6929 19.2441 28.9205 19.3344 29.0711C19.3721 29.1389 17.9185 31.4134 17.6324 31.7372C17.6022 31.7749 17.4441 31.6996 17.2859 31.5791C17.1278 31.451 16.5403 31.0444 15.9755 30.6753L14.9587 30.005L15.5688 28.9732C16.6533 27.1582 16.6307 27.1883 16.8642 27.1883C16.9847 27.1883 17.2483 27.3013 17.4516 27.4444ZM20.306 27.7155C20.0424 28.0393 19.824 28.2427 19.7336 28.2427C19.5378 28.2427 19.2215 28.0695 18.6868 27.6778L18.2424 27.354L19.1311 27.3013C19.6131 27.2787 20.0801 27.2485 20.1629 27.2335C20.7654 27.1356 20.7654 27.1431 20.306 27.7155ZM14.6123 31.3381C15.3052 31.6092 16.4801 32.2494 16.819 32.5356C17.06 32.7314 17.06 32.7464 16.9621 32.9874C16.9018 33.123 16.6985 33.4845 16.4951 33.7933C16.2993 34.0946 16.0734 34.4711 15.9905 34.6293C15.7495 35.0962 15.6742 35.1339 15.1771 34.9983C14.6424 34.8402 14.3562 34.569 14.2056 34.0795C14.0022 33.3941 13.6784 31.4586 13.716 31.1573C13.7311 31.0444 14.0474 31.1121 14.6123 31.3381Z" fill="black"></path>
</symbol>

<symbol viewBox="0 0 384 412" id="smile">
        <g clip-path="url(#clip0_3604_134)">
        <path d="M212.907 113.296C221.102 117.796 234.025 111.118 241.772 98.3803C249.519 85.6423 249.156 71.6677 240.961 67.1672C232.766 62.6667 219.843 69.3445 212.096 82.0825C204.349 94.8205 204.712 108.795 212.907 113.296Z" fill="white"></path>
        <path d="M240.333 68.1999C247.788 72.2943 247.951 85.8391 240.686 97.7843C233.421 109.73 220.99 116.358 213.534 112.263C206.079 108.169 205.916 94.6241 213.181 82.6788C220.446 70.7335 232.885 64.1095 240.333 68.1999ZM241.589 66.1345C232.795 61.3047 219.104 68.1778 211.01 81.4863C202.916 94.7947 203.484 109.499 212.278 114.329C221.073 119.158 234.764 112.285 242.858 98.9769C250.952 85.6684 250.391 70.9682 241.589 66.1345Z" fill="black"></path>
        <path d="M262.897 140.723C271.092 145.223 284.016 138.545 291.763 125.807C299.51 113.069 299.147 99.0947 290.952 94.5942C282.757 90.0937 269.834 96.7715 262.087 109.51C254.339 122.248 254.703 136.222 262.897 140.723Z" fill="white"></path>
        <path d="M290.324 95.6269C297.779 99.7213 297.942 113.266 290.677 125.211C283.412 137.157 270.981 143.785 263.525 139.69C256.07 135.596 255.907 122.051 263.172 110.106C270.437 98.1605 282.876 91.5365 290.324 95.6269ZM291.58 93.5615C282.785 88.7317 269.094 95.6048 261 108.913C252.906 122.222 253.475 136.926 262.269 141.756C271.063 146.585 284.755 139.712 292.849 126.404C300.943 113.095 300.382 98.3952 291.58 93.5615Z" fill="black"></path>
        <path d="M220.024 101.591C224.622 104.116 231.817 100.46 236.095 93.4256C240.373 86.3912 240.114 78.642 235.517 76.1173C230.92 73.5926 223.725 77.2484 219.447 84.2829C215.169 91.3174 215.427 99.0666 220.024 101.591Z" fill="black"></path>
        <path d="M235.307 76.4618C239.701 78.8747 239.89 86.3906 235.732 93.2273C231.574 100.064 224.627 103.66 220.233 101.248C215.84 98.8346 215.65 91.3188 219.808 84.482C223.966 77.6453 230.921 74.0529 235.307 76.4618ZM235.726 75.7733C230.927 73.1378 223.477 76.8622 219.084 84.0845C214.692 91.3068 215.016 99.3005 219.814 101.936C224.613 104.572 232.064 100.847 236.456 93.6248C240.849 86.4025 240.525 78.4088 235.726 75.7733Z" fill="black"></path>
        <path d="M270.016 129.018C274.613 131.543 281.808 127.887 286.086 120.852C290.364 113.818 290.106 106.069 285.508 103.544C280.911 101.019 273.716 104.675 269.438 111.71C265.16 118.744 265.418 126.493 270.016 129.018Z" fill="black"></path>
        <path d="M285.298 103.889C289.692 106.301 289.881 113.817 285.724 120.654C281.566 127.491 274.618 131.087 270.224 128.674C265.831 126.261 265.641 118.746 269.799 111.909C273.957 105.072 280.912 101.48 285.298 103.889ZM285.717 103.2C280.918 100.565 273.468 104.289 269.076 111.511C264.683 118.734 265.007 126.727 269.806 129.363C274.605 131.998 282.055 128.274 286.447 121.052C290.84 113.829 290.516 105.836 285.717 103.2Z" fill="black"></path>
        <path d="M229.886 91.8539C232.653 93.3733 236.583 91.8307 238.664 88.4083C240.746 84.9859 240.19 80.9797 237.424 79.4603C234.657 77.9409 230.727 79.4836 228.645 82.906C226.564 86.3284 227.119 90.3345 229.886 91.8539Z" fill="white"></path>
        <path d="M279.877 119.281C282.643 120.8 286.574 119.257 288.655 115.835C290.736 112.413 290.181 108.407 287.414 106.887C284.648 105.368 280.717 106.91 278.636 110.333C276.555 113.755 277.11 117.761 279.877 119.281Z" fill="white"></path>
        <path d="M234.002 49.2141C243.229 49.8351 251.605 54.4573 256.787 61.738C258.59 64.268 262.972 61.9123 261.158 59.3674C254.904 50.5764 245.135 45.1792 233.985 44.4318C230.767 44.2108 230.791 48.9971 234.002 49.2141Z" fill="black"></path>
        <path d="M286.167 77.8335C295.393 78.4545 303.769 83.0767 308.952 90.3574C310.755 92.8874 315.136 90.5316 313.323 87.9868C307.069 79.1958 297.3 73.7986 286.15 73.0512C282.931 72.8302 282.955 77.6165 286.167 77.8335Z" fill="black"></path>
        <path d="M219.665 157.845C182.251 137.318 162.41 103.419 175.348 82.1248" stroke="black" stroke-width="3" stroke-miterlimit="10"></path>
        <path d="M310.831 156.455C297.893 177.75 257.078 178.371 219.665 157.845" stroke="black" stroke-width="3" stroke-miterlimit="10"></path>
        <path d="M166.332 79.4736L185.199 83.3991" stroke="black" stroke-width="3" stroke-miterlimit="10"></path>
        <path d="M305.662 152.243L316.418 159.98" stroke="black" stroke-width="3" stroke-miterlimit="10"></path>
        </g>
        <g clip-path="url(#clip1_3604_134)">
        <path d="M68.5184 231.017C76.1577 228.574 78.9404 216.966 74.7339 205.09C70.5273 193.214 60.9244 185.568 53.2852 188.011C45.6459 190.455 42.8632 202.063 47.0697 213.938C51.2763 225.814 60.8792 233.461 68.5184 231.017Z" fill="white"></path>
        <path d="M53.6262 188.974C60.5761 186.751 69.7773 194.277 73.722 205.414C77.6666 216.551 75.1271 227.832 68.1772 230.055C61.2273 232.278 52.0261 224.752 48.0814 213.615C44.1368 202.478 46.683 191.195 53.6262 188.974ZM52.9441 187.048C44.7459 189.67 41.6623 201.855 46.0572 214.262C50.452 226.67 60.6611 234.603 68.8593 231.981C77.0575 229.358 80.1411 217.174 75.7462 204.767C71.3513 192.359 61.1491 184.424 52.9441 187.048Z" fill="black"></path>
        <path d="M115.12 216.136C122.759 213.693 125.542 202.085 121.335 190.209C117.129 178.333 107.526 170.687 99.8868 173.13C92.2475 175.573 89.4648 187.181 93.6713 199.057C97.8778 210.933 107.481 218.58 115.12 216.136Z" fill="white"></path>
        <path d="M100.228 174.093C107.178 171.87 116.379 179.396 120.324 190.533C124.268 201.67 121.729 212.951 114.779 215.174C107.829 217.397 98.6277 209.871 94.683 198.734C90.7383 187.597 93.2846 176.314 100.228 174.093ZM99.5457 172.167C91.3475 174.789 88.2639 186.973 92.6588 199.381C97.0536 211.789 107.263 219.722 115.461 217.099C123.659 214.477 126.743 202.293 122.348 189.885C117.953 177.478 107.751 169.543 99.5457 172.167Z" fill="black"></path>
        <path d="M64.6538 220.106C68.9392 218.735 70.5302 212.308 68.2072 205.749C65.8842 199.191 60.527 194.986 56.2415 196.356C51.956 197.727 50.3651 204.155 52.6881 210.713C55.0111 217.271 60.3683 221.477 64.6538 220.106Z" fill="black"></path>
        <path d="M56.3552 196.677C60.4509 195.367 65.6122 199.483 67.8699 205.857C70.1276 212.231 68.6359 218.475 64.5401 219.785C60.4444 221.095 55.283 216.979 53.0253 210.605C50.7677 204.231 52.2662 197.985 56.3552 196.677ZM56.1278 196.035C51.6542 197.466 49.9656 204.087 52.3506 210.821C54.7356 217.554 60.2939 221.858 64.7675 220.427C69.2411 218.996 70.9297 212.375 68.5447 205.641C66.1597 198.908 60.6014 194.604 56.1278 196.035Z" fill="black"></path>
        <path d="M111.256 205.225C115.541 203.854 117.132 197.426 114.809 190.868C112.486 184.309 107.129 180.104 102.844 181.475C98.5581 182.845 96.9671 189.273 99.2901 195.831C101.613 202.39 106.97 206.595 111.256 205.225Z" fill="black"></path>
        <path d="M102.957 181.795C107.053 180.485 112.214 184.601 114.472 190.975C116.73 197.349 115.238 203.593 111.142 204.903C107.046 206.213 101.885 202.097 99.6274 195.723C97.3697 189.349 98.8682 183.103 102.957 181.795ZM102.73 181.153C98.2562 182.584 96.5676 189.206 98.9526 195.939C101.338 202.673 106.896 206.976 111.37 205.545C115.843 204.114 117.532 197.493 115.147 190.76C112.762 184.026 107.203 179.723 102.73 181.153Z" fill="black"></path>
        <path d="M57.3556 209.935C59.9347 209.11 61.1093 205.855 59.9791 202.664C58.8488 199.473 55.8418 197.555 53.2627 198.38C50.6836 199.205 49.509 202.46 50.6392 205.651C51.7695 208.842 54.7765 210.76 57.3556 209.935Z" fill="white"></path>
        <path d="M103.504 193.77C106.083 192.945 107.257 189.689 106.127 186.499C104.997 183.308 101.99 181.39 99.4106 182.215C96.8315 183.04 95.657 186.295 96.7872 189.486C97.9174 192.677 100.924 194.595 103.504 193.77Z" fill="white"></path>
        <path d="M40.8025 180.326C41.9344 176.419 43.9512 172.401 48.0688 170.702C51.9052 169.123 56.2101 170.114 59.9022 171.602C62.4298 172.626 64.3401 168.985 61.7967 167.96C56.8814 165.968 51.2446 164.867 46.1807 167.033C40.8492 169.313 38.098 174.376 36.6154 179.497C35.883 182.03 40.07 182.837 40.8025 180.326Z" fill="black"></path>
        <path d="M89.961 160.597C100.681 161.743 111.716 160.345 121.691 156.426C124.219 155.438 122.868 151.563 120.321 152.565C111.063 156.196 100.802 157.677 90.8237 156.608C88.1025 156.311 87.2241 160.298 89.961 160.597Z" fill="black"></path>
        <path d="M105.41 256.729C70.5324 267.866 36.5707 260.804 29.5508 240.954" stroke="black" stroke-width="3" stroke-miterlimit="10"></path>
        <path d="M155.849 200.623C162.869 220.474 140.287 245.592 105.41 256.729" stroke="black" stroke-width="3" stroke-miterlimit="10"></path>
        <path d="M22.6893 244.931L35.9592 235.693" stroke="black" stroke-width="3" stroke-miterlimit="10"></path>
        <path d="M150.105 201.386L161.367 199.219" stroke="black" stroke-width="3" stroke-miterlimit="10"></path>
        </g>
        <g clip-path="url(#clip2_3604_134)">
        <path d="M235.064 303.191C243.145 308.585 257.219 302.777 266.5 290.22C275.781 277.663 276.755 263.111 268.674 257.718C260.594 252.325 246.519 258.133 237.238 270.69C227.957 283.247 226.984 297.798 235.064 303.191Z" fill="white"></path>
        <path d="M267.922 258.737C275.273 263.643 274.133 277.73 265.43 289.506C256.726 301.281 243.168 307.08 235.817 302.174C228.465 297.267 229.605 283.18 238.308 271.404C247.012 259.629 260.577 253.835 267.922 258.737ZM269.426 256.7C260.755 250.913 245.864 256.856 236.167 269.975C226.47 283.095 225.64 298.422 234.312 304.21C242.983 309.997 257.874 304.054 267.571 290.935C277.268 277.815 278.105 262.493 269.426 256.7Z" fill="black"></path>
        <path d="M284.348 336.062C292.428 341.455 306.502 335.647 315.783 323.09C325.065 310.533 326.038 295.982 317.957 290.589C309.877 285.196 295.802 291.003 286.521 303.56C277.24 316.117 276.267 330.669 284.348 336.062Z" fill="white"></path>
        <path d="M317.205 291.607C324.556 296.513 323.416 310.601 314.713 322.376C306.009 334.152 292.451 339.95 285.1 335.044C277.748 330.138 278.888 316.05 287.592 304.275C296.295 292.499 309.861 286.705 317.205 291.607ZM318.71 289.571C310.038 283.783 295.147 289.726 285.45 302.846C275.754 315.965 274.923 331.292 283.595 337.08C292.267 342.868 307.157 336.925 316.854 323.805C326.551 310.686 327.388 295.363 318.71 289.571Z" fill="black"></path>
        <path d="M251.462 286.772C255.995 289.798 263.825 286.629 268.95 279.694C274.075 272.76 274.556 264.686 270.023 261.66C265.49 258.635 257.66 261.804 252.535 268.738C247.409 275.673 246.929 283.747 251.462 286.772Z" fill="black"></path>
        <path d="M269.772 262C274.104 264.891 273.575 272.717 268.594 279.456C263.612 286.196 256.045 289.325 251.713 286.433C247.381 283.542 247.91 275.716 252.892 268.977C257.873 262.237 265.447 259.113 269.772 262ZM270.274 261.321C265.542 258.163 257.44 261.381 252.178 268.5C246.916 275.62 246.479 283.954 251.211 287.112C255.943 290.27 264.045 287.052 269.307 279.933C274.569 272.813 275.006 264.479 270.274 261.321Z" fill="black"></path>
        <path d="M301.459 320.118C305.992 323.144 313.822 319.975 318.947 313.04C324.073 306.106 324.553 298.032 320.02 295.006C315.487 291.981 307.657 295.15 302.532 302.084C297.406 309.019 296.926 317.093 301.459 320.118Z" fill="black"></path>
        <path d="M319.769 295.346C324.101 298.237 323.572 306.063 318.591 312.802C313.609 319.542 306.042 322.671 301.71 319.779C297.378 316.888 297.907 309.062 302.889 302.323C307.87 295.583 315.444 292.459 319.769 295.346ZM320.271 294.667C315.539 291.509 307.437 294.727 302.175 301.846C296.913 308.966 296.477 317.3 301.209 320.458C305.94 323.616 314.042 320.398 319.304 313.279C324.566 306.159 325.003 297.825 320.271 294.667Z" fill="black"></path>
        <path d="M249.032 283.63C251.153 285.045 254.445 284.066 256.384 281.442C258.323 278.818 258.176 275.543 256.055 274.127C253.935 272.712 250.643 273.692 248.704 276.316C246.764 278.94 246.911 282.214 249.032 283.63Z" fill="white"></path>
        <path d="M299.243 318.131C301.363 319.547 304.655 318.567 306.594 315.943C308.534 313.319 308.387 310.045 306.266 308.629C304.145 307.214 300.854 308.193 298.914 310.817C296.975 313.441 297.122 316.716 299.243 318.131Z" fill="white"></path>
        <path d="M261.48 238.432C271.476 238.771 280.365 243.305 286.252 250.974C288.241 253.562 292.28 250.379 290.305 247.801C283.645 239.129 273.224 233.855 261.928 233.471C258.567 233.359 258.094 238.323 261.48 238.432Z" fill="black"></path>
        <path d="M319.572 272.111C328.992 275.335 335.95 282.277 339.102 291.265C340.171 294.304 344.926 292.2 343.868 289.189C340.287 278.98 331.969 271.049 321.34 267.413C318.172 266.333 316.39 271.021 319.572 272.111Z" fill="black"></path>
        <path d="M235.836 349.795C198.952 325.195 181.622 288.238 197.127 267.245" stroke="black" stroke-width="3" stroke-miterlimit="10"></path>
        <path d="M330.692 356.328C315.186 377.32 272.72 374.395 235.836 349.795" stroke="black" stroke-width="3" stroke-miterlimit="10"></path>
        <path d="M188.017 263.702L207.24 269.431" stroke="black" stroke-width="3" stroke-miterlimit="10"></path>
        <path d="M325.729 351.498L336.155 360.478" stroke="black" stroke-width="3" stroke-miterlimit="10"></path>
        <path d="M253.784 242.759C253.059 243.856 251.42 246.653 251.411 250.548C251.405 253.948 252.639 256.463 253.301 257.603" stroke="black" stroke-width="2" stroke-miterlimit="10"></path>
        <path d="M256.634 245.136C256.304 245.959 255.558 248.066 255.554 251.001C255.55 253.561 256.112 255.456 256.408 256.312" stroke="black" stroke-width="2" stroke-miterlimit="10"></path>
        <path d="M261.07 248.469C260.717 249.034 259.92 250.488 259.917 252.513C259.916 254.275 260.515 255.586 260.837 256.175" stroke="black" stroke-width="2" stroke-miterlimit="10"></path>
        <path d="M338.502 298.25C337.663 299.271 335.453 301.687 331.601 303.018C328.238 304.179 325.33 303.931 323.977 303.728" stroke="black" stroke-width="2" stroke-miterlimit="10"></path>
        <path d="M335.181 296.511C334.479 297.086 332.648 298.469 329.745 299.47C327.212 300.344 325.146 300.485 324.199 300.512" stroke="black" stroke-width="2" stroke-miterlimit="10"></path>
        <path d="M330.375 293.68C329.936 294.188 328.768 295.394 326.765 296.085C325.021 296.685 323.52 296.595 322.828 296.508" stroke="black" stroke-width="2" stroke-miterlimit="10"></path>
        <path d="M236.982 352.506C240.18 350.073 239.353 344.043 235.135 339.038C230.918 334.034 224.906 331.949 221.709 334.383C218.511 336.816 219.338 342.846 223.556 347.85C227.773 352.855 233.785 354.94 236.982 352.506Z" fill="black" stroke="black" stroke-width="3" stroke-miterlimit="10"></path>
        <path d="M233.505 355.838C240.013 360.179 245.851 362.938 246.543 362.001C247.235 361.064 242.52 356.785 236.011 352.444C229.502 348.103 223.665 345.344 222.973 346.281C222.281 347.218 226.996 351.497 233.505 355.838Z" fill="black" stroke="black" stroke-width="3" stroke-miterlimit="10"></path>
        <path d="M244.134 361.755C250.277 364.407 256.63 363.684 258.324 360.14C260.019 356.596 256.413 351.573 250.27 348.922C244.127 346.27 237.774 346.993 236.08 350.537C234.385 354.081 237.992 359.104 244.134 361.755Z" fill="black" stroke="black" stroke-width="3" stroke-miterlimit="10"></path>
        </g>
        <defs>
        <clipPath id="clip0_3604_134">
            <rect width="185.152" height="132.458" fill="white" transform="matrix(0.868152 0.496299 -0.50371 0.863873 200.708 0.0622559)"></rect>
        </clipPath>
        <clipPath id="clip1_3604_134">
            <rect width="147.086" height="122.812" fill="white" transform="matrix(0.948852 -0.315721 0.321378 0.946951 0 166.31)"></rect>
        </clipPath>
        <clipPath id="clip2_3604_134">
            <rect width="186.726" height="139.407" fill="white" transform="matrix(0.821168 0.570687 -0.578294 0.815828 230.618 191)"></rect>
        </clipPath>
    </defs>
</symbol> 

<symbol viewBox="0 0 36 36" id="weight">
    <path d="M15.9495 0.615261C11.4785 1.27831 7.79691 3.76068 6.4423 7.0112C6.01016 8.03811 5.89381 8.66881 5.89381 9.90595C5.90212 10.8197 5.93536 11.1593 6.07664 11.6525C6.36751 12.6228 6.57527 13.1161 7.00742 13.8114L7.40632 14.4583L6.95755 15.0082C3.40897 19.423 3.01837 25.633 5.97691 30.525C7.08221 32.3605 8.88559 34.1636 10.6474 35.2148L11.171 35.5221L18.3346 35.4655L25.5066 35.4008L25.8473 35.2148C27.0357 34.5437 28.7144 33.0478 29.6535 31.8349C31.0663 29.9913 31.9888 27.8405 32.3794 25.5117C32.5123 24.6789 32.5123 22.2127 32.3711 21.4284C31.9472 19.0107 31.0414 16.9407 29.612 15.1052C29.3377 14.7575 29.1217 14.4664 29.1217 14.4421C29.1217 14.426 29.2712 14.1753 29.4458 13.8923C29.853 13.2454 30.2186 12.4126 30.4181 11.6849C30.6425 10.8763 30.6425 8.85479 30.4181 8.0462C29.6203 5.17571 27.2269 2.78228 23.8445 1.46428C22.8971 1.09233 21.2765 0.696121 20.2294 0.566746C19.2571 0.453545 16.8554 0.477802 15.9495 0.615261ZM21.0106 1.93326C25.4484 2.79845 28.6978 5.51531 29.2962 8.86287C29.4291 9.61486 29.346 10.8924 29.1217 11.604C28.8973 12.2994 28.4818 13.1161 27.9914 13.8114C27.792 14.0944 27.6258 14.4179 27.6258 14.523C27.6258 14.6281 27.8003 14.903 28.0496 15.178C30.1272 17.4824 31.2242 20.3691 31.2242 23.4903C31.2159 27.04 29.853 30.153 27.2269 32.595C26.7781 33.0154 26.1382 33.541 25.7975 33.7674L25.1742 34.1879L18.3014 34.2121L11.4369 34.2445L10.905 33.9049C8.977 32.6516 7.24011 30.5816 6.27609 28.3822C5.06276 25.6007 4.9381 22.3744 5.92705 19.4797C6.45061 17.9757 7.14869 16.7466 8.21244 15.4529C8.64458 14.9354 8.84404 14.6281 8.84404 14.4826C8.84404 14.3613 8.62796 13.9651 8.34541 13.5527C7.34815 12.1053 6.94093 10.4962 7.18194 8.97608C7.43125 7.43976 8.12933 6.17836 9.41746 4.92504C11.0962 3.29978 13.4397 2.22435 16.1905 1.82006C17.3291 1.65026 19.8471 1.71494 21.0106 1.93326Z" fill="#131313"></path>
    <path d="M16.3233 3.35635C12.916 3.91428 10.2484 5.80638 9.37576 8.28875C9.17631 8.84668 9.14307 9.065 9.14307 9.8655C9.14307 10.666 9.17631 10.8843 9.37576 11.4422C9.50042 11.798 9.73311 12.2913 9.89101 12.5419C10.3232 13.2373 10.5143 13.2616 11.3703 12.7441C12.6501 11.9597 14.1211 11.3856 15.6502 11.0703C16.6807 10.8601 18.6586 10.7792 19.7805 10.9086C21.534 11.1107 23.4371 11.7414 24.9579 12.639C25.3901 12.8896 25.8306 13.0999 25.9386 13.0999C26.5702 13.0999 27.3763 11.2805 27.3763 9.8655C27.3763 6.72009 24.3679 4.02748 20.1046 3.35635C19.1988 3.21081 17.1959 3.21081 16.3233 3.35635ZM20.437 4.6501C21.8664 4.95736 23.1795 5.53955 24.1685 6.30771C25.4981 7.33461 26.2128 8.76582 26.0965 10.1485C26.0549 10.6983 25.8472 11.4422 25.7225 11.5231C25.6893 11.5393 25.2239 11.3452 24.692 11.0865C23.5867 10.5528 22.3318 10.1242 21.0603 9.84933C20.2874 9.68761 19.9633 9.66335 18.2348 9.67144C16.5311 9.67144 16.1737 9.6957 15.4341 9.84933C14.1543 10.1242 13.157 10.4639 11.9271 11.046C10.6888 11.6363 10.7553 11.6444 10.5309 10.9167C10.2401 9.97062 10.4229 8.7173 10.988 7.77125C11.2872 7.26993 12.1099 6.43708 12.7083 6.0247C13.8468 5.24037 14.8441 4.88459 16.9882 4.49646C17.4286 4.41561 19.8719 4.52881 20.437 4.6501Z" fill="#131313"></path>
    <path d="M19.0827 15.0808C18.85 15.3719 18.85 15.6468 19.091 15.8813C19.2489 16.0349 19.4068 16.0754 19.9802 16.1158C21.0938 16.1967 22.1576 16.5201 23.1133 17.0699C23.7947 17.4742 24.8335 18.4526 25.2989 19.1561C25.9887 20.1668 26.4624 21.6142 26.4624 22.6815C26.4624 23.0535 26.4956 23.1667 26.6702 23.3284C26.9361 23.5953 27.2851 23.5953 27.5428 23.3284C27.7256 23.1424 27.7339 23.0939 27.684 22.3015C27.4513 18.3879 24.1022 15.1212 20.0966 14.9029L19.2655 14.8544L19.0827 15.0808Z" fill="#131313"></path>
</symbol>

<symbol viewBox="0 0 34 34" id="facebook">
        <g clip-path="url(#clip0_105_10822)">
        <path d="M17 34C26.3888 34 34 26.3888 34 17C34 7.61116 26.3888 0 17 0C7.61116 0 0 7.61116 0 17C0 26.3888 7.61116 34 17 34Z" fill="#F8D24E"></path>
        <path d="M21.7235 16.9804H18.9502V27.2001H14.7484V16.9804H12.75V13.3888H14.7484V11.0646C14.7484 9.40261 15.5333 6.80005 18.9876 6.80005L22.1 6.81315V10.2994H19.8417C19.4713 10.2994 18.9505 10.4856 18.9505 11.2784V13.3922H22.0906L21.7235 16.9804Z" fill="#84A178"></path>
        </g>
        <defs>
        <clipPath id="clip0_105_10822">
            <rect width="34" height="34" fill="white"></rect>
        </clipPath>
        </defs>
</symbol>

<symbol viewBox="0 0 34 34" id="github">
    <circle cx="17" cy="17" r="17" fill="#F8D24E"></circle>
    <path d="M17 7C11.5074 7 7 11.5074 7 17C7 21.687 10.2889 25.9447 14.6562 27V23.6916C14.2235 23.7863 13.8253 23.7891 13.3847 23.6592C12.7938 23.4848 12.3136 23.0912 11.9571 22.4909C11.7299 22.1076 11.3272 21.6919 10.9072 21.7224L10.8042 20.5551C11.7125 20.4773 12.4984 21.1086 12.9648 21.8923C13.172 22.2408 13.4105 22.4451 13.7166 22.5354C14.0125 22.6226 14.3302 22.5807 14.7003 22.45C14.7933 21.7089 15.1328 21.4315 15.3893 21.0408V21.0402C12.7846 20.6517 11.7466 19.2699 11.3346 18.1792C10.7886 16.731 11.0816 14.9218 12.047 13.7784C12.0658 13.7561 12.0996 13.6978 12.0865 13.6571C11.6439 12.32 12.1833 11.2139 12.2031 11.0965C12.714 11.2476 12.797 10.9445 14.4222 11.9319L14.7031 12.1007C14.8206 12.1707 14.7837 12.1308 14.9012 12.1219C15.5797 11.9376 16.295 11.8358 16.9998 11.8267C17.71 11.8358 18.4207 11.9376 19.1274 12.1294L19.2183 12.1385C19.2104 12.1373 19.243 12.1328 19.2978 12.1001C21.328 10.8704 21.2551 11.2723 21.7995 11.0953C21.8192 11.2128 22.3514 12.3369 21.9135 13.6571C21.8544 13.839 23.6736 15.5048 22.6653 18.1787C22.2533 19.2699 21.2154 20.6517 18.6107 21.0402V21.0408C18.9446 21.5497 19.3457 21.8204 19.3436 22.8702V27C23.7111 25.9447 26.9998 21.687 26.9998 17C27 11.5074 22.4926 7 17 7V7Z" fill="#84A178"></path>
</symbol>

<symbol viewBox="0 0 34 34" id="telegram">
        <g clip-path="url(#clip0_105_10829)">
        <circle cx="17" cy="17" r="17" fill="#F8D24E"></circle>
        <path d="M13.6713 19.5238L13.3338 23.9538C13.8167 23.9538 14.0258 23.7602 14.2765 23.5278L16.5401 21.5088L21.2305 24.7146C22.0907 25.162 22.6968 24.9264 22.9289 23.976L26.0076 10.5116L26.0085 10.5108C26.2813 9.32401 25.5486 8.85991 24.7105 9.15106L6.61358 15.6175C5.3785 16.0649 5.3972 16.7075 6.40362 16.9987L11.0303 18.3418L21.7771 12.0658C22.2829 11.7532 22.7427 11.9261 22.3645 12.2387L13.6713 19.5238Z" fill="#84A178"></path>
        </g>
        <defs>
        <clipPath id="clip0_105_10829">
            <rect width="34" height="34" fill="white"></rect>
        </clipPath>
        </defs>
</symbol>

<symbol viewBox="0 0 32 32" id="burger">
    <path d="M6 10H26" stroke="white" stroke-width="2" stroke-linecap="round"></path>
    <path d="M6 16H26" stroke="white" stroke-width="2" stroke-linecap="round"></path>
    <path d="M6 22H26" stroke="white" stroke-width="2" stroke-linecap="round"></path>
</symbol>

<symbol viewBox="0 0 12 12" id="shirt-right">
    <path d="M4 2L8.95 6L4 10" stroke="#131313" stroke-width="2" stroke-linecap="round" stroke-linejoin="round"></path>
</symbol>

<symbol viewBox="0 0 1199 385" id="dotted">
    <ellipse cx="447.193" cy="32.7546" rx="5.85842" ry="6.2439" fill="#F8D24E"></ellipse>
    <ellipse cx="459.886" cy="24.4294" rx="5.85842" ry="6.2439" fill="#F8D24E"></ellipse>
    <ellipse cx="474.532" cy="15.0635" rx="5.85842" ry="6.2439" fill="#F8D24E"></ellipse>
    <ellipse cx="488.202" cy="6.73829" rx="5.85842" ry="6.2439" fill="#F8D24E"></ellipse>
    <ellipse cx="428.641" cy="54.6082" rx="5.85842" ry="6.2439" fill="#F8D24E"></ellipse>
    <ellipse cx="441.335" cy="46.283" rx="5.85842" ry="6.2439" fill="#F8D24E"></ellipse>
    <ellipse cx="455.98" cy="36.9172" rx="5.85842" ry="6.2439" fill="#F8D24E"></ellipse>
    <ellipse cx="469.65" cy="28.592" rx="5.85842" ry="6.2439" fill="#F8D24E"></ellipse>
    <ellipse cx="400.325" cy="55.6489" rx="5.85842" ry="6.2439" fill="#F8D24E"></ellipse>
    <ellipse cx="413.019" cy="47.3237" rx="5.85842" ry="6.2439" fill="#F8D24E"></ellipse>
    <ellipse cx="427.665" cy="37.9578" rx="5.85842" ry="6.2439" fill="#F8D24E"></ellipse>
    <ellipse cx="441.335" cy="29.6326" rx="5.85842" ry="6.2439" fill="#F8D24E"></ellipse>
    <ellipse cx="384.703" cy="79.5837" rx="5.85842" ry="6.2439" fill="#F8D24E"></ellipse>
    <ellipse cx="397.396" cy="71.2586" rx="5.85842" ry="6.2439" fill="#F8D24E"></ellipse>
    <ellipse cx="412.042" cy="61.8928" rx="5.85842" ry="6.2439" fill="#F8D24E"></ellipse>
    <ellipse cx="425.712" cy="53.5676" rx="5.85842" ry="6.2439" fill="#F8D24E"></ellipse>
    <ellipse cx="372.986" cy="101.438" rx="5.85842" ry="6.2439" fill="#F8D24E"></ellipse>
    <ellipse cx="385.679" cy="93.1123" rx="5.85842" ry="6.2439" fill="#F8D24E"></ellipse>
    <ellipse cx="400.325" cy="83.7463" rx="5.85842" ry="6.2439" fill="#F8D24E"></ellipse>
    <ellipse cx="413.995" cy="75.4212" rx="5.85842" ry="6.2439" fill="#F8D24E"></ellipse>
    <ellipse cx="5.85842" cy="6.2439" rx="5.85842" ry="6.2439" transform="matrix(0.999999 0.00156002 -0.00137335 0.999999 358.358 117.047)" fill="#F8D24E"></ellipse>
    <ellipse cx="5.85842" cy="6.2439" rx="5.85842" ry="6.2439" transform="matrix(0.999999 0.00156002 -0.00137335 0.999999 371.062 108.742)" fill="#F8D24E"></ellipse>
    <ellipse cx="5.85842" cy="6.2439" rx="5.85842" ry="6.2439" transform="matrix(0.999999 0.00156002 -0.00137335 0.999999 385.722 99.3989)" fill="#F8D24E"></ellipse>
    <ellipse cx="5.85842" cy="6.2439" rx="5.85842" ry="6.2439" transform="matrix(0.999999 0.00156002 -0.00137335 0.999999 399.403 91.095)" fill="#F8D24E"></ellipse>
    <ellipse cx="5.85842" cy="6.2439" rx="5.85842" ry="6.2439" transform="matrix(0.999999 0.00156002 -0.00137335 0.999999 234.378 154.553)" fill="#F8D24E"></ellipse>
    <ellipse cx="5.85842" cy="6.2439" rx="5.85842" ry="6.2439" transform="matrix(0.999999 0.00156002 -0.00137335 0.999999 248.06 146.249)" fill="#F8D24E"></ellipse>
    <ellipse cx="5.85842" cy="6.2439" rx="5.85842" ry="6.2439" transform="matrix(0.999999 0.00156002 -0.00137335 0.999999 319.301 126.413)" fill="#F8D24E"></ellipse>
    <ellipse cx="5.85842" cy="6.2439" rx="5.85842" ry="6.2439" transform="matrix(0.999999 0.00156002 -0.00137335 0.999999 332.006 118.108)" fill="#F8D24E"></ellipse>
    <ellipse cx="5.85842" cy="6.2439" rx="5.85842" ry="6.2439" transform="matrix(0.999999 0.00156002 -0.00137335 0.999999 346.665 108.765)" fill="#F8D24E"></ellipse>
    <ellipse cx="5.85842" cy="6.2439" rx="5.85842" ry="6.2439" transform="matrix(0.999999 0.00156002 -0.00137335 0.999999 360.346 100.46)" fill="#F8D24E"></ellipse>
    <ellipse cx="241.171" cy="142.023" rx="5.85842" ry="6.2439" fill="#F8D24E"></ellipse>
    <ellipse cx="254.841" cy="133.698" rx="5.85842" ry="6.2439" fill="#F8D24E"></ellipse>
    <ellipse cx="273.393" cy="124.332" rx="5.85842" ry="6.2439" fill="#F8D24E"></ellipse>
    <ellipse cx="286.086" cy="116.007" rx="5.85842" ry="6.2439" fill="#F8D24E"></ellipse>
    <ellipse cx="300.732" cy="106.64" rx="5.85842" ry="6.2439" fill="#F8D24E"></ellipse>
    <ellipse cx="314.402" cy="98.3152" rx="5.85842" ry="6.2439" fill="#F8D24E"></ellipse>
    <ellipse cx="298.779" cy="136.819" rx="5.85842" ry="6.2439" fill="#F8D24E"></ellipse>
    <ellipse cx="311.473" cy="128.494" rx="5.85842" ry="6.2439" fill="#F8D24E"></ellipse>
    <ellipse cx="326.119" cy="119.129" rx="5.85842" ry="6.2439" fill="#F8D24E"></ellipse>
    <ellipse cx="339.789" cy="110.803" rx="5.85842" ry="6.2439" fill="#F8D24E"></ellipse>
    <ellipse cx="300.732" cy="120.169" rx="5.85842" ry="6.2439" fill="#F8D24E"></ellipse>
    <ellipse cx="313.426" cy="111.844" rx="5.85842" ry="6.2439" fill="#F8D24E"></ellipse>
    <ellipse cx="328.072" cy="102.478" rx="5.85842" ry="6.2439" fill="#F8D24E"></ellipse>
    <ellipse cx="341.741" cy="94.1528" rx="5.85842" ry="6.2439" fill="#F8D24E"></ellipse>
    <ellipse cx="247.03" cy="126.413" rx="5.85842" ry="6.2439" fill="#F8D24E"></ellipse>
    <ellipse cx="259.723" cy="118.088" rx="5.85842" ry="6.2439" fill="#F8D24E"></ellipse>
    <ellipse cx="274.37" cy="108.722" rx="5.85842" ry="6.2439" fill="#F8D24E"></ellipse>
    <ellipse cx="288.039" cy="100.397" rx="5.85842" ry="6.2439" fill="#F8D24E"></ellipse>
    <ellipse cx="5.85842" cy="358.478" rx="5.85842" ry="6.2439" fill="#F8D24E"></ellipse>
    <ellipse cx="18.5513" cy="350.153" rx="5.85842" ry="6.2439" fill="#F8D24E"></ellipse>
    <ellipse cx="33.1978" cy="340.787" rx="5.85842" ry="6.2439" fill="#F8D24E"></ellipse>
    <ellipse cx="46.8672" cy="332.462" rx="5.85842" ry="6.2439" fill="#F8D24E"></ellipse>
    <ellipse cx="80.065" cy="361.6" rx="5.85842" ry="6.2439" fill="#F8D24E"></ellipse>
    <ellipse cx="92.7578" cy="353.275" rx="5.85842" ry="6.2439" fill="#F8D24E"></ellipse>
    <ellipse cx="107.404" cy="343.909" rx="5.85842" ry="6.2439" fill="#F8D24E"></ellipse>
    <ellipse cx="121.074" cy="335.584" rx="5.85842" ry="6.2439" fill="#F8D24E"></ellipse>
    <ellipse cx="110.334" cy="357.438" rx="5.85842" ry="6.2439" fill="#F8D24E"></ellipse>
    <ellipse cx="123.027" cy="349.112" rx="5.85842" ry="6.2439" fill="#F8D24E"></ellipse>
    <ellipse cx="137.673" cy="339.746" rx="5.85842" ry="6.2439" fill="#F8D24E"></ellipse>
    <ellipse cx="151.343" cy="331.421" rx="5.85842" ry="6.2439" fill="#F8D24E"></ellipse>
    <ellipse cx="165.989" cy="318.933" rx="5.85842" ry="6.2439" fill="#F8D24E"></ellipse>
    <ellipse cx="134.744" cy="326.218" rx="5.85842" ry="6.2439" fill="#F8D24E"></ellipse>
    <ellipse cx="1024.25" cy="377.21" rx="5.85842" ry="6.2439" fill="#F8D24E"></ellipse>
    <ellipse cx="1036.94" cy="368.885" rx="5.85842" ry="6.2439" fill="#F8D24E"></ellipse>
    <ellipse cx="1051.59" cy="359.519" rx="5.85842" ry="6.2439" fill="#F8D24E"></ellipse>
    <ellipse cx="1065.26" cy="351.193" rx="5.85842" ry="6.2439" fill="#F8D24E"></ellipse>
    <ellipse cx="1057.44" cy="373.047" rx="5.85842" ry="6.2439" fill="#F8D24E"></ellipse>
    <ellipse cx="1070.14" cy="364.722" rx="5.85842" ry="6.2439" fill="#F8D24E"></ellipse>
    <ellipse cx="1084.78" cy="355.356" rx="5.85842" ry="6.2439" fill="#F8D24E"></ellipse>
    <ellipse cx="1098.45" cy="347.031" rx="5.85842" ry="6.2439" fill="#F8D24E"></ellipse>
    <ellipse cx="1085.76" cy="369.925" rx="5.85842" ry="6.2439" fill="#F8D24E"></ellipse>
    <ellipse cx="1098.45" cy="361.6" rx="5.85842" ry="6.2439" fill="#F8D24E"></ellipse>
    <ellipse cx="1113.1" cy="352.234" rx="5.85842" ry="6.2439" fill="#F8D24E"></ellipse>
    <ellipse cx="1126.77" cy="343.909" rx="5.85842" ry="6.2439" fill="#F8D24E"></ellipse>
    <ellipse cx="1113.1" cy="365.763" rx="5.85842" ry="6.2439" fill="#F8D24E"></ellipse>
    <ellipse cx="1125.79" cy="357.438" rx="5.85842" ry="6.2439" fill="#F8D24E"></ellipse>
    <ellipse cx="1140.44" cy="348.072" rx="5.85842" ry="6.2439" fill="#F8D24E"></ellipse>
    <ellipse cx="1154.11" cy="339.746" rx="5.85842" ry="6.2439" fill="#F8D24E"></ellipse>
    <ellipse cx="1121.89" cy="377.21" rx="5.85842" ry="6.2439" fill="#F8D24E"></ellipse>
    <ellipse cx="1134.58" cy="368.885" rx="5.85842" ry="6.2439" fill="#F8D24E"></ellipse>
    <ellipse cx="1152.16" cy="378.25" rx="5.85842" ry="6.2439" fill="#F8D24E"></ellipse>
    <ellipse cx="1149.23" cy="359.519" rx="5.85842" ry="6.2439" fill="#F8D24E"></ellipse>
    <ellipse cx="1166.8" cy="368.885" rx="5.85842" ry="6.2439" fill="#F8D24E"></ellipse>
    <ellipse cx="1180.47" cy="378.25" rx="5.85842" ry="6.2439" fill="#F8D24E"></ellipse>
    <ellipse cx="1162.9" cy="351.193" rx="5.85842" ry="6.2439" fill="#F8D24E"></ellipse>
    <ellipse cx="1180.47" cy="360.559" rx="5.85842" ry="6.2439" fill="#F8D24E"></ellipse>
    <ellipse cx="1194.14" cy="369.925" rx="5.85842" ry="6.2439" fill="#F8D24E"></ellipse>
    <ellipse cx="964.687" cy="308.527" rx="5.85842" ry="6.2439" fill="#F8D24E"></ellipse>
    <ellipse cx="977.38" cy="300.202" rx="5.85842" ry="6.2439" fill="#F8D24E"></ellipse>
    <ellipse cx="992.026" cy="290.836" rx="5.85842" ry="6.2439" fill="#F8D24E"></ellipse>
    <ellipse cx="1005.7" cy="282.51" rx="5.85842" ry="6.2439" fill="#F8D24E"></ellipse>
    <ellipse cx="940.276" cy="307.486" rx="5.85842" ry="6.2439" fill="#F8D24E"></ellipse>
    <ellipse cx="952.97" cy="299.161" rx="5.85842" ry="6.2439" fill="#F8D24E"></ellipse>
    <ellipse cx="967.616" cy="289.795" rx="5.85842" ry="6.2439" fill="#F8D24E"></ellipse>
    <ellipse cx="981.285" cy="281.47" rx="5.85842" ry="6.2439" fill="#F8D24E"></ellipse>
    <ellipse cx="994.956" cy="377.21" rx="5.85842" ry="6.2439" fill="#F8D24E"></ellipse>
    <ellipse cx="1007.65" cy="368.885" rx="5.85842" ry="6.2439" fill="#F8D24E"></ellipse>
    <ellipse cx="1022.29" cy="359.519" rx="5.85842" ry="6.2439" fill="#F8D24E"></ellipse>
    <ellipse cx="1035.96" cy="351.193" rx="5.85842" ry="6.2439" fill="#F8D24E"></ellipse>
    <ellipse cx="979.333" cy="370.966" rx="5.85842" ry="6.2439" fill="#F8D24E"></ellipse>
    <ellipse cx="992.026" cy="362.641" rx="5.85842" ry="6.2439" fill="#F8D24E"></ellipse>
    <ellipse cx="1006.67" cy="353.275" rx="5.85842" ry="6.2439" fill="#F8D24E"></ellipse>
    <ellipse cx="1020.34" cy="344.95" rx="5.85842" ry="6.2439" fill="#F8D24E"></ellipse>
    <ellipse cx="985.191" cy="349.112" rx="5.85842" ry="6.2439" fill="#F8D24E"></ellipse>
    <ellipse cx="997.885" cy="340.787" rx="5.85842" ry="6.2439" fill="#F8D24E"></ellipse>
    <ellipse cx="1012.53" cy="331.421" rx="5.85842" ry="6.2439" fill="#F8D24E"></ellipse>
    <ellipse cx="1026.2" cy="323.096" rx="5.85842" ry="6.2439" fill="#F8D24E"></ellipse>
    <ellipse cx="5.86756" cy="6.23532" rx="5.86756" ry="6.23532" transform="matrix(0.986913 -0.161253 0.142374 0.989813 673.512 299.051)" fill="#F8D24E"></ellipse>
    <ellipse cx="5.86756" cy="6.23532" rx="5.86756" ry="6.23532" transform="matrix(0.986913 -0.161253 0.142374 0.989813 684.875 288.772)" fill="#F8D24E"></ellipse>
    <ellipse cx="5.86756" cy="6.23532" rx="5.86756" ry="6.23532" transform="matrix(0.986913 -0.161253 0.142374 0.989813 698.021 277.149)" fill="#F8D24E"></ellipse>
    <ellipse cx="5.86756" cy="6.23532" rx="5.86756" ry="6.23532" transform="matrix(0.986913 -0.161253 0.142374 0.989813 710.349 266.712)" fill="#F8D24E"></ellipse>
    <ellipse cx="985.191" cy="312.689" rx="5.85842" ry="6.2439" fill="#F8D24E"></ellipse>
    <ellipse cx="997.885" cy="304.364" rx="5.85842" ry="6.2439" fill="#F8D24E"></ellipse>
    <ellipse cx="1012.53" cy="294.998" rx="5.85842" ry="6.2439" fill="#F8D24E"></ellipse>
    <ellipse cx="1026.2" cy="286.673" rx="5.85842" ry="6.2439" fill="#F8D24E"></ellipse>
    <ellipse cx="982.262" cy="332.462" rx="5.85842" ry="6.2439" fill="#F8D24E"></ellipse>
    <ellipse cx="994.956" cy="324.137" rx="5.85842" ry="6.2439" fill="#F8D24E"></ellipse>
    <ellipse cx="1009.6" cy="314.771" rx="5.85842" ry="6.2439" fill="#F8D24E"></ellipse>
    <ellipse cx="1023.27" cy="306.446" rx="5.85842" ry="6.2439" fill="#F8D24E"></ellipse>
    <ellipse cx="920.749" cy="302.283" rx="5.85842" ry="6.2439" fill="#F8D24E"></ellipse>
    <ellipse cx="933.442" cy="293.958" rx="5.85842" ry="6.2439" fill="#F8D24E"></ellipse>
    <ellipse cx="948.088" cy="284.592" rx="5.85842" ry="6.2439" fill="#F8D24E"></ellipse>
    <path d="M947.112 308.527C950.347 308.527 952.97 305.731 952.97 302.283C952.97 298.835 950.347 296.039 947.112 296.039C943.876 296.039 941.253 298.835 941.253 302.283C941.253 305.731 943.876 308.527 947.112 308.527Z" fill="#F8D24E"></path>
    <ellipse cx="52.7256" cy="360.559" rx="5.85842" ry="6.2439" fill="#F8D24E"></ellipse>
    <ellipse cx="65.419" cy="352.234" rx="5.85842" ry="6.2439" fill="#F8D24E"></ellipse>
    <ellipse cx="80.065" cy="342.868" rx="5.85842" ry="6.2439" fill="#F8D24E"></ellipse>
    <ellipse cx="93.7349" cy="334.543" rx="5.85842" ry="6.2439" fill="#F8D24E"></ellipse>
    <ellipse cx="28.3159" cy="359.519" rx="5.85842" ry="6.2439" fill="#F8D24E"></ellipse>
    <ellipse cx="41.0088" cy="351.193" rx="5.85842" ry="6.2439" fill="#F8D24E"></ellipse>
    <ellipse cx="55.6548" cy="341.828" rx="5.85842" ry="6.2439" fill="#F8D24E"></ellipse>
    <ellipse cx="69.3242" cy="333.503" rx="5.85842" ry="6.2439" fill="#F8D24E"></ellipse>
    <ellipse cx="447.193" cy="56.6895" rx="5.85842" ry="6.2439" fill="#F8D24E"></ellipse>
    <ellipse cx="459.886" cy="48.3643" rx="5.85842" ry="6.2439" fill="#F8D24E"></ellipse>
    <ellipse cx="474.532" cy="38.9985" rx="5.85842" ry="6.2439" fill="#F8D24E"></ellipse>
    <ellipse cx="488.202" cy="30.6733" rx="5.85842" ry="6.2439" fill="#F8D24E"></ellipse>
    <ellipse cx="445.24" cy="99.3562" rx="5.85842" ry="6.2439" fill="#F8D24E"></ellipse>
    <ellipse cx="457.933" cy="91.031" rx="5.85842" ry="6.2439" fill="#F8D24E"></ellipse>
    <ellipse cx="472.58" cy="81.6648" rx="5.85842" ry="6.2439" fill="#F8D24E"></ellipse>
    <ellipse cx="486.249" cy="73.3396" rx="5.85842" ry="6.2439" fill="#F8D24E"></ellipse>
    <ellipse cx="448.169" cy="77.5024" rx="5.85842" ry="6.2439" fill="#F8D24E"></ellipse>
    <ellipse cx="460.862" cy="69.1773" rx="5.85842" ry="6.2439" fill="#F8D24E"></ellipse>
    <ellipse cx="475.509" cy="59.8115" rx="5.85842" ry="6.2439" fill="#F8D24E"></ellipse>
    <ellipse cx="489.178" cy="51.4863" rx="5.85842" ry="6.2439" fill="#F8D24E"></ellipse>
    <ellipse cx="446.216" cy="120.169" rx="5.85842" ry="6.2439" fill="#F8D24E"></ellipse>
    <ellipse cx="458.91" cy="111.844" rx="5.85842" ry="6.2439" fill="#F8D24E"></ellipse>
    <ellipse cx="473.556" cy="102.478" rx="5.85842" ry="6.2439" fill="#F8D24E"></ellipse>
    <ellipse cx="487.225" cy="94.1528" rx="5.85842" ry="6.2439" fill="#F8D24E"></ellipse>
    <ellipse cx="452.075" cy="134.738" rx="5.85842" ry="6.2439" fill="#F8D24E"></ellipse>
    <ellipse cx="464.768" cy="126.413" rx="5.85842" ry="6.2439" fill="#F8D24E"></ellipse>
    <ellipse cx="479.414" cy="117.047" rx="5.85842" ry="6.2439" fill="#F8D24E"></ellipse>
    <ellipse cx="493.084" cy="108.722" rx="5.85842" ry="6.2439" fill="#F8D24E"></ellipse>
    <ellipse cx="464.768" cy="146.185" rx="5.85842" ry="6.2439" fill="#F8D24E"></ellipse>
    <ellipse cx="477.461" cy="137.86" rx="5.85842" ry="6.2439" fill="#F8D24E"></ellipse>
    <ellipse cx="492.107" cy="128.494" rx="5.85842" ry="6.2439" fill="#F8D24E"></ellipse>
    <ellipse cx="505.777" cy="120.169" rx="5.85842" ry="6.2439" fill="#F8D24E"></ellipse>
    <ellipse cx="481.367" cy="155.551" rx="5.85842" ry="6.2439" fill="#F8D24E"></ellipse>
    <ellipse cx="494.06" cy="147.226" rx="5.85842" ry="6.2439" fill="#F8D24E"></ellipse>
    <ellipse cx="508.706" cy="137.86" rx="5.85842" ry="6.2439" fill="#F8D24E"></ellipse>
    <ellipse cx="522.376" cy="129.535" rx="5.85842" ry="6.2439" fill="#F8D24E"></ellipse>
    <ellipse cx="500.895" cy="157.633" rx="5.85842" ry="6.2439" fill="#F8D24E"></ellipse>
    <ellipse cx="513.588" cy="149.307" rx="5.85842" ry="6.2439" fill="#F8D24E"></ellipse>
    <ellipse cx="528.234" cy="139.942" rx="5.85842" ry="6.2439" fill="#F8D24E"></ellipse>
    <ellipse cx="541.904" cy="131.616" rx="5.85842" ry="6.2439" fill="#F8D24E"></ellipse>
    <ellipse cx="520.423" cy="161.795" rx="5.85842" ry="6.2439" fill="#F8D24E"></ellipse>
    <ellipse cx="533.117" cy="153.47" rx="5.85842" ry="6.2439" fill="#F8D24E"></ellipse>
    <ellipse cx="547.763" cy="144.104" rx="5.85842" ry="6.2439" fill="#F8D24E"></ellipse>
    <ellipse cx="561.433" cy="135.779" rx="5.85842" ry="6.2439" fill="#F8D24E"></ellipse>
    <ellipse cx="515.542" cy="181.568" rx="5.85842" ry="6.2439" fill="#F8D24E"></ellipse>
    <ellipse cx="528.234" cy="173.242" rx="5.85842" ry="6.2439" fill="#F8D24E"></ellipse>
    <ellipse cx="542.88" cy="163.876" rx="5.85842" ry="6.2439" fill="#F8D24E"></ellipse>
    <ellipse cx="556.55" cy="155.551" rx="5.85842" ry="6.2439" fill="#F8D24E"></ellipse>
    <ellipse cx="513.588" cy="200.299" rx="5.85842" ry="6.2439" fill="#F8D24E"></ellipse>
    <ellipse cx="526.282" cy="191.974" rx="5.85842" ry="6.2439" fill="#F8D24E"></ellipse>
    <ellipse cx="540.928" cy="182.608" rx="5.85842" ry="6.2439" fill="#F8D24E"></ellipse>
    <ellipse cx="554.597" cy="174.283" rx="5.85842" ry="6.2439" fill="#F8D24E"></ellipse>
    <ellipse cx="506.753" cy="224.234" rx="5.85842" ry="6.2439" fill="#F8D24E"></ellipse>
    <ellipse cx="519.447" cy="215.909" rx="5.85842" ry="6.2439" fill="#F8D24E"></ellipse>
    <ellipse cx="534.093" cy="206.543" rx="5.85842" ry="6.2439" fill="#F8D24E"></ellipse>
    <ellipse cx="547.763" cy="198.218" rx="5.85842" ry="6.2439" fill="#F8D24E"></ellipse>
    <ellipse cx="503.824" cy="245.047" rx="5.85842" ry="6.2439" fill="#F8D24E"></ellipse>
    <ellipse cx="516.517" cy="236.722" rx="5.85842" ry="6.2439" fill="#F8D24E"></ellipse>
    <ellipse cx="531.163" cy="227.356" rx="5.85842" ry="6.2439" fill="#F8D24E"></ellipse>
    <ellipse cx="544.833" cy="219.031" rx="5.85842" ry="6.2439" fill="#F8D24E"></ellipse>
    <ellipse cx="499.918" cy="266.901" rx="5.85842" ry="6.2439" fill="#F8D24E"></ellipse>
    <ellipse cx="512.612" cy="258.576" rx="5.85842" ry="6.2439" fill="#F8D24E"></ellipse>
    <ellipse cx="527.258" cy="249.21" rx="5.85842" ry="6.2439" fill="#F8D24E"></ellipse>
    <ellipse cx="540.928" cy="240.885" rx="5.85842" ry="6.2439" fill="#F8D24E"></ellipse>
    <ellipse cx="497.965" cy="284.592" rx="5.85842" ry="6.2439" fill="#F8D24E"></ellipse>
    <ellipse cx="510.659" cy="276.267" rx="5.85842" ry="6.2439" fill="#F8D24E"></ellipse>
    <ellipse cx="525.305" cy="266.901" rx="5.85842" ry="6.2439" fill="#F8D24E"></ellipse>
    <ellipse cx="538.975" cy="258.576" rx="5.85842" ry="6.2439" fill="#F8D24E"></ellipse>
    <ellipse cx="496.013" cy="303.324" rx="5.85842" ry="6.2439" fill="#F8D24E"></ellipse>
    <ellipse cx="508.707" cy="294.998" rx="5.85842" ry="6.2439" fill="#F8D24E"></ellipse>
    <ellipse cx="523.353" cy="285.633" rx="5.85842" ry="6.2439" fill="#F8D24E"></ellipse>
    <ellipse cx="537.022" cy="277.307" rx="5.85842" ry="6.2439" fill="#F8D24E"></ellipse>
    <ellipse cx="501.871" cy="318.933" rx="5.85842" ry="6.2439" fill="#F8D24E"></ellipse>
    <ellipse cx="514.564" cy="310.608" rx="5.85842" ry="6.2439" fill="#F8D24E"></ellipse>
    <ellipse cx="529.21" cy="301.242" rx="5.85842" ry="6.2439" fill="#F8D24E"></ellipse>
    <ellipse cx="542.88" cy="292.917" rx="5.85842" ry="6.2439" fill="#F8D24E"></ellipse>
    <ellipse cx="516.518" cy="327.259" rx="5.85842" ry="6.2439" fill="#F8D24E"></ellipse>
    <ellipse cx="529.211" cy="318.933" rx="5.85842" ry="6.2439" fill="#F8D24E"></ellipse>
    <ellipse cx="543.857" cy="309.568" rx="5.85842" ry="6.2439" fill="#F8D24E"></ellipse>
    <ellipse cx="557.526" cy="301.242" rx="5.85842" ry="6.2439" fill="#F8D24E"></ellipse>
    <ellipse cx="533.117" cy="332.462" rx="5.85842" ry="6.2439" fill="#F8D24E"></ellipse>
    <ellipse cx="545.81" cy="324.137" rx="5.85842" ry="6.2439" fill="#F8D24E"></ellipse>
    <ellipse cx="560.456" cy="314.771" rx="5.85842" ry="6.2439" fill="#F8D24E"></ellipse>
    <ellipse cx="574.125" cy="306.446" rx="5.85842" ry="6.2439" fill="#F8D24E"></ellipse>
    <ellipse cx="554.597" cy="333.503" rx="5.85842" ry="6.2439" fill="#F8D24E"></ellipse>
    <ellipse cx="567.291" cy="325.177" rx="5.85842" ry="6.2439" fill="#F8D24E"></ellipse>
    <ellipse cx="581.937" cy="315.811" rx="5.85842" ry="6.2439" fill="#F8D24E"></ellipse>
    <ellipse cx="595.606" cy="307.486" rx="5.85842" ry="6.2439" fill="#F8D24E"></ellipse>
    <ellipse cx="579.984" cy="333.503" rx="5.85842" ry="6.2439" fill="#F8D24E"></ellipse>
    <ellipse cx="592.677" cy="325.177" rx="5.85842" ry="6.2439" fill="#F8D24E"></ellipse>
    <ellipse cx="607.323" cy="315.811" rx="5.85842" ry="6.2439" fill="#F8D24E"></ellipse>
    <ellipse cx="620.993" cy="307.486" rx="5.85842" ry="6.2439" fill="#F8D24E"></ellipse>
    <ellipse cx="601.464" cy="332.462" rx="5.85842" ry="6.2439" fill="#F8D24E"></ellipse>
    <ellipse cx="614.157" cy="324.137" rx="5.85842" ry="6.2439" fill="#F8D24E"></ellipse>
    <ellipse cx="628.804" cy="314.771" rx="5.85842" ry="6.2439" fill="#F8D24E"></ellipse>
    <ellipse cx="642.473" cy="306.446" rx="5.85842" ry="6.2439" fill="#F8D24E"></ellipse>
    <ellipse cx="625.875" cy="331.421" rx="5.85842" ry="6.2439" fill="#F8D24E"></ellipse>
    <ellipse cx="638.568" cy="323.096" rx="5.85842" ry="6.2439" fill="#F8D24E"></ellipse>
    <ellipse cx="653.213" cy="313.73" rx="5.85842" ry="6.2439" fill="#F8D24E"></ellipse>
    <ellipse cx="666.883" cy="305.405" rx="5.85842" ry="6.2439" fill="#F8D24E"></ellipse>
    <ellipse cx="648.332" cy="304.364" rx="5.85842" ry="6.2439" fill="#F8D24E"></ellipse>
    <ellipse cx="661.025" cy="296.039" rx="5.85842" ry="6.2439" fill="#F8D24E"></ellipse>
    <ellipse cx="675.671" cy="286.673" rx="5.85842" ry="6.2439" fill="#F8D24E"></ellipse>
    <ellipse cx="689.341" cy="278.348" rx="5.85842" ry="6.2439" fill="#F8D24E"></ellipse>
</symbol>

<symbol viewBox="0 0 41 16" id="strech">
    <path d="M40.7071 8.70711C41.0976 8.31658 41.0976 7.68342 40.7071 7.29289L34.3431 0.928932C33.9526 0.538408 33.3195 0.538408 32.9289 0.928932C32.5384 1.31946 32.5384 1.95262 32.9289 2.34315L38.5858 8L32.9289 13.6569C32.5384 14.0474 32.5384 14.6805 32.9289 15.0711C33.3195 15.4616 33.9526 15.4616 34.3431 15.0711L40.7071 8.70711ZM0 9H40V7H0V9Z" cursor="pointer" fill="#FCFCFC"></path>
</symbol>


</svg>